<?xml version="1.0" encoding="UTF-8"?><svg id="Layer_1" xmlns="http://www.w3.org/2000/svg" viewBox="0 0 405.26 112.51"><defs><style>.cls-1{fill:#010101;}</style></defs><path class="cls-1" d="m81.43,75.54c-1.44-8.16-6.3-14.12-13.13-18.6-2.16-1.42-4.46-2.64-7-4.13h0c.77-.4,1.31-.69,1.86-.96,3.14-1.5,6.01-3.37,8.4-5.9,4.67-4.95,6.25-10.97,6.08-17.57-.28-10.96-5.23-19.07-15.04-24.2C56.5.98,49.8.33,43.14.2c-3.13-.06-5.83-.11-8.67-.14C27.58-.02,20.87-.01,1.52.05H0v112.44c.05,0,22.84.16,48.11-.42,6.1-.14,11.96-1.66,17.39-4.52,12.77-6.73,18.41-17.93,15.92-32.02h.01Zm-37.75,9.78h-15.2V27.08h15.2v58.24Z"/><path class="cls-1" d="m110.5,2.68h18.58c7.52,0,12.59,4.34,12.59,10.82,0,3.85-2.51,7.34-5.81,8.74,4.71,1.35,8.19,5.56,8.19,10.45,0,7.7-6.05,12.78-14.85,12.78h-18.71V2.68h.01Zm17.06,16.5c2.81,0,4.83-1.65,4.83-4.16s-2.02-4.16-4.83-4.16h-7.34v8.31h7.34Zm.67,18.1c3.61,0,6.11-2.2,6.11-5.32s-2.51-5.14-6.11-5.14h-8.01v10.45h8.01Z"/><path class="cls-1" d="m147.25,30c0-9.23,6.6-15.83,15.65-15.83,10.45,0,16.69,7.95,15.22,17.97h-21.94c.73,4.28,3.54,6.42,7.15,6.42,3,0,4.95-1.35,5.62-3.36h8.99c-1.22,6.54-6.48,10.76-14.55,10.76-9.96,0-16.14-6.66-16.14-15.95h0Zm21.52-4.28c-.12-2.87-2.38-4.83-5.87-4.83s-5.5,1.59-6.42,4.83h12.29Z"/><path class="cls-1" d="m183.08,14.66h9.05v3.48c1.71-2.38,5.2-3.97,8.74-3.97,1.28,0,2.38.12,3.42.61v8.5c-1.47-.55-2.81-.74-4.22-.74-4.1,0-7.95,3.18-7.95,11.62v11.31h-9.05V14.66h0Z"/><path class="cls-1" d="m207.05,46.63h8.92c.61,2.32,2.81,3.73,5.81,3.73,3.97,0,6.85-2.08,6.85-6.18v-3.67c-1.89,2.26-4.95,3.36-8.07,3.36-8.92,0-14.61-5.75-14.61-14.86s5.62-14.85,14.61-14.85c3.12,0,6.17,1.04,8.07,3.36v-2.87h9.05v28.55c0,9.05-6.79,13.87-16.14,13.87-8.31,0-13.75-4.71-14.49-10.45h0Zm14.61-9.9c4.16,0,6.97-3.12,6.97-7.7s-2.81-7.7-6.97-7.7-7.03,3.06-7.03,7.7,2.87,7.7,7.03,7.7Z"/><path class="cls-1" d="m243.55,46.63h8.92c.61,2.32,2.81,3.73,5.81,3.73,3.97,0,6.85-2.08,6.85-6.18v-3.67c-1.9,2.26-4.95,3.36-8.07,3.36-8.92,0-14.61-5.75-14.61-14.86s5.62-14.85,14.61-14.85c3.12,0,6.17,1.04,8.07,3.36v-2.87h9.05v28.55c0,9.05-6.79,13.87-16.14,13.87-8.31,0-13.75-4.71-14.49-10.45h0Zm14.61-9.9c4.16,0,6.97-3.12,6.97-7.7s-2.81-7.7-6.97-7.7-7.03,3.06-7.03,7.7,2.87,7.7,7.03,7.7Z"/><path class="cls-1" d="m280.23,14.66h9.05v3.48c1.71-2.38,5.2-3.97,8.74-3.97,1.28,0,2.38.12,3.42.61v8.5c-1.47-.55-2.81-.74-4.22-.74-4.1,0-7.95,3.18-7.95,11.62v11.31h-9.05V14.66h.01Z"/><path class="cls-1" d="m304.69,34.47V14.66h8.99v17.6c0,3.61,2.08,5.81,5.32,5.81,4.22,0,6.66-3.61,6.66-10.03v-13.38h9.05v30.81h-9.05v-3.42c-1.47,1.95-4.95,3.91-9.54,3.91-6.72,0-11.43-4.4-11.43-11.49Z"/><path class="cls-1" d="m339.36,30c0-9.23,6.6-15.83,15.65-15.83,10.45,0,16.69,7.95,15.22,17.97h-21.94c.73,4.28,3.55,6.42,7.15,6.42,2.99,0,4.95-1.35,5.62-3.36h8.99c-1.22,6.54-6.48,10.76-14.55,10.76-9.96,0-16.14-6.66-16.14-15.95h0Zm21.52-4.28c-.12-2.87-2.38-4.83-5.87-4.83s-5.5,1.59-6.42,4.83h12.29Z"/><path class="cls-1" d="m375.18,14.66h9.05v3.36c1.47-1.89,4.95-3.85,9.54-3.85,6.79,0,11.49,4.4,11.49,11.68v19.62h-9.05v-17.73c0-3.49-2.14-5.69-5.26-5.69-4.28,0-6.73,3.55-6.73,9.9v13.51h-9.05V14.66h.01Z"/><path class="cls-1" d="m110.5,66.55h9.72v42.79h-9.72v-42.79Z"/><path class="cls-1" d="m126.46,78.53h9.05v3.36c1.47-1.89,4.95-3.85,9.54-3.85,6.79,0,11.49,4.4,11.49,11.68v19.62h-9.05v-17.73c0-3.49-2.14-5.69-5.26-5.69-4.28,0-6.72,3.55-6.72,9.9v13.51h-9.05v-30.81h0Z"/><path class="cls-1" d="m160.82,98.95h8.07c.3,2.57,1.89,4.04,4.83,4.04,2.44,0,3.91-1.04,3.91-2.75,0-5.25-16.26-1.53-16.26-13.08,0-5.07,4.28-9.11,11.25-9.11,7.52,0,12.16,3.85,12.96,10.03h-8.07c-.49-2.26-2.32-3.61-4.89-3.61-1.83,0-3.18.79-3.18,2.14,0,4.95,16.44.92,16.44,13.33,0,5.74-5.07,9.9-12.16,9.9-7.82,0-12.53-4.58-12.9-10.88h0Z"/><path class="cls-1" d="m192.68,98.52v-12.65h-4.83v-7.34h4.83v-7.34h8.99v7.34h7.03v7.34h-7.03v11.8c0,2.87,1.59,4.34,3.97,4.34,1.04,0,2.38-.18,3.42-.55v7.52c-1.47.61-2.93.86-4.64.86-6.66,0-11.74-3.97-11.74-11.31h0Z"/><rect class="cls-1" x="213.4" y="78.53" width="9.05" height="30.81"/><path class="cls-1" d="m231.01,98.52v-12.65h-4.83v-7.34h4.83v-7.34h8.99v7.34h7.03v7.34h-7.03v11.8c0,2.87,1.59,4.34,3.97,4.34,1.04,0,2.38-.18,3.42-.55v7.52c-1.47.61-2.93.86-4.64.86-6.66,0-11.74-3.97-11.74-11.31h0Z"/><path class="cls-1" d="m251.43,98.34v-19.8h8.99v17.6c0,3.61,2.08,5.81,5.32,5.81,4.22,0,6.66-3.61,6.66-10.03v-13.39h9.05v30.81h-9.05v-3.42c-1.47,1.95-4.95,3.91-9.54,3.91-6.72,0-11.43-4.4-11.43-11.49Z"/><path class="cls-1" d="m290.01,98.52v-12.65h-4.83v-7.34h4.83v-7.34h8.99v7.34h7.03v7.34h-7.03v11.8c0,2.87,1.59,4.34,3.97,4.34,1.04,0,2.38-.18,3.42-.55v7.52c-1.47.61-2.93.86-4.64.86-6.66,0-11.74-3.97-11.74-11.31h0Z"/><path class="cls-1" d="m308.78,93.87c0-9.23,6.6-15.83,15.65-15.83,10.45,0,16.69,7.95,15.22,17.97h-21.95c.73,4.28,3.54,6.42,7.15,6.42,2.99,0,4.95-1.35,5.62-3.36h8.99c-1.22,6.54-6.48,10.76-14.55,10.76-9.96,0-16.14-6.66-16.14-15.95h.01Zm21.52-4.28c-.12-2.87-2.38-4.83-5.87-4.83s-5.5,1.59-6.42,4.83h12.29Z"/><ellipse class="cls-1" cx="217.89" cy="70.13" rx="5.37" ry="5.19"/></svg>