<?xml version="1.0" encoding="UTF-8"?><svg id="Layer_1" xmlns="http://www.w3.org/2000/svg" xmlns:xlink="http://www.w3.org/1999/xlink" viewBox="0 0 181.02 115.28"><defs><style>.cls-1,.cls-2{fill:none;}.cls-3{fill:#1c5e7b;}.cls-4{fill:#1c5f7a;}.cls-5{fill:#ed0800;stroke:#1c5e7b;stroke-miterlimit:10;stroke-width:.34px;}.cls-2{clip-path:url(#clippath);}</style><clipPath id="clippath"><rect class="cls-1" width="181.02" height="90.91"/></clipPath></defs><g class="cls-2"><path class="cls-3" d="m86.95,28.04c-2.28-5.39-5.54-10.23-9.7-14.39-4.15-4.15-9-7.42-14.39-9.7C57.28,1.59,51.36.4,45.25.4s-12.04,1.2-17.62,3.56c-5.39,2.28-10.23,5.54-14.39,9.7-4.15,4.16-7.42,9-9.7,14.39-2.34,5.57-3.54,11.51-3.54,17.61s1.2,12.04,3.56,17.62c2.28,5.39,5.54,10.23,9.7,14.39,4.15,4.15,9,7.42,14.39,9.7,5.58,2.36,11.51,3.56,17.62,3.56s12.04-1.2,17.62-3.56c5.39-2.28,10.23-5.54,14.39-9.7,4.15-4.15,7.42-9,9.7-14.39,2.36-5.58,3.56-11.51,3.56-17.62s-1.2-12.04-3.56-17.62h-.01Zm-19.45-20.95c.07.17.11.33.08.39-.02.04-.03.05-.12.08-.14.05-.37.12-.59.51-.31.55-.47.7-.94,1-.23.15-.57.52-.1,1.29h0c.07.12.61,1.03.54,1.78,0,.1-.03.38.17.52.24.16.59-.03.97-.23.14-.08.3-.16.42-.21.25-.1.45.17.65.48.07.1.12.19.18.24.33.31,2.1,2.16,2.17,2.49-.01.2.08.57.22,1.16.12.5.27,1.07.28,1.37,0,.53-.24.91-.35,1.04-.04-.02-.11-.06-.16-.1-.14-.09-.27-.17-.41-.14-.21.06-.23.32-.25.72,0,.16-.01.34-.03.5-.03.2-.09.45-.16.7-.12.45-.19.72-.11.88.06.13.23.24.64.5.39.25.94.59,1.27.94.14.15.29.39.23.63-.06.23-.3.45-.65.58-.28.1-.37-.01-.53-.44-.06-.17-.12-.32-.22-.41-.05-.04-.1-.1-.17-.17-.29-.29-.68-.69-1.05-.67-.03-.03-.06-.18-.08-.26-.05-.23-.1-.52-.34-.66-.34-.2-.71.1-.98.32-.08.06-.18.14-.22.17-.12,0-.48-.12-.76-.22h-.03s-.04-.01-.04-.01c-.4.03-.63.14-.72.35-.04.1-.08.3.15.57.24.29.72.56,1.01.49.09-.02.32-.03.85.1.06.01.1.06.12.11.02.06.02.12-.01.17-.14.23-.27.39-.39.48-.16.12-.22.31-.17.54.08.34.39.74.63.79.17.04.63.32.79.5-.02.01-.05.03-.07.05-.12.09-.29.21-.35.43-.1.32.17.51.35.64.1.07.2.14.24.21.07.14.19.27.32.41.18.19.38.41.45.65.08.27-.24.75-.46,1l-.05.06v.07c0,.3-.01,1.14-.15,1.5-.11.29-.76.84-1.19,1.15-.29,0-.85,0-1.06.21-.06.06-.1.14-.09.22,0,0-.07.21-1.09.5-.41.12-.5.41-.56.56-.06-.06-.12-.14-.16-.2-.12-.17-.21-.28-.34-.29-.07,0-.13.02-.17.08-.08.08-.53.26-.7.26-.12,0-.24.08-.37.22-.19.23-.43.71-.39.99.03.17.14.29.23.4.1.12.19.21.19.36,0,.53,1.56,1.72,1.75,1.83.23.14.46,1.23.42,1.5-.06.19-1.01.88-1.21.95-.21.04-.25.26-.3.45-.01.07-.03.14-.05.2-.05.15-.48.43-.62.43-.02-.05-.04-.19-.04-.27,0-.12-.01-.25-.06-.37-.07-.2-.33-.31-.67-.45-.18-.08-.48-.2-.52-.28l-.02-.04c-.14-.27-.32-.58-.68-.79-.06-.03-.11-.07-.16-.1-.24-.16-.46-.31-.92-.13-.58.22-.43,1.67-.4,1.96,0,.08.06.19.23.2.05,0,.12.01.27.16.13.13.19.42.24.67.06.25.1.47.22.59.1.1.26.17.45.25.24.1.53.23.84.47.37.29.32.74.24,1.19-.01.06-.02.12-.03.16-.03.24.21.48.45.72.03.03.07.07.1.1-.34-.08-.93-.32-1.23-.49-.19-.11-.72-1.09-1.1-1.94l-.02-.05-.04-.03c-.61-.43-.79-1.29-.92-1.85-.04-.15-.06-.28-.09-.38-.06-.2-.03-.5,0-.79.03-.37.08-.76-.06-1.05-.1-.23-.26-.65-.39-1.01-.19-.52-.24-.65-.28-.72-.03-.04-.12-.12-.28-.11-.21.01-.51.15-.68.43-.12.21-.59.02-.68-.02-.09-.1-.08-.7-.08-.92v-.33c-.01-.34-.17-.42-.35-.45-.06-.01-.08-.02-.11-.04-.05-.06-.1-.12-.14-.2-.11-.17-.23-.35-.44-.43-.12-.06-.39-.56-.53-.84-.06-.12-.12-.23-.18-.34-.04-.06-.14-.25-.32-.25s-.29.19-.4.39c-.05.09-.1.18-.15.25-.07.09-.33.03-.56-.03-.18-.04-.36-.09-.53-.09-.49,0-.53.4-.56.69,0,.08-.01.17-.03.25-.03.14-.32.29-.53.4-.25.12-.46.23-.54.41-.11.25-.63.81-.84.88-.34.11-.63.58-.7,1.12-.01.12-.28.13-.56.12-.23,0-.39,0-.5.09-.15.14-.1.4-.04.81.04.27.09.56.06.73-.08.39-.45,1.15-.65,1.42-.08.1-.12.21-.17.31-.1.24-.19.45-.65.6-.13.04-.23.03-.32,0-.2-.11-.31-.46-.39-.72-.03-.09-.06-.18-.08-.26-.02-.06-.06-.15-.09-.26-.17-.52-.49-1.5-1.19-2.04-.43-.32-.41-1.5-.39-2.36.01-.69.01-1.06-.12-1.23-.11-.14-.32-.12-.83-.02-.23.04-.5.09-.62.08-.07,0-.22-.23-.31-.36-.18-.25-.38-.54-.66-.64-.25-.09-.4-.39-.56-.7-.06-.11-.11-.22-.17-.32-.1-.17-.27-.27-.5-.3-.38-.06-.85.08-1.04.24-.14.06-.81-.04-1.17-.1-.3-.05-.57-.09-.72-.09-.33,0-1.26-.5-1.48-.8-.09-.12-.23-.2-.39-.22-.33-.04-.73.18-.99.4-.13.11-1.05-.41-1.51-.85-.36-.34-.99-.92-1.25-.97-.13-.03-.26.03-.34.17-.13.21-.16.58.06.9.14.21.3.66.41.99.09.26.14.41.19.5.11.2.35.17.5.14.03,0,.07-.01.1-.01.07.4.56.54,1.15.66.44.1.81-.28,1.11-.58.09-.09.21-.21.28-.25.21.3.32.79.33.79l.02.08.08.03c1.41.7,1.21,1.16,1.11,1.41-.03.07-.06.14-.06.21-.03.08-.24.29-.4.44-.21.21-.45.44-.63.68-.32.45-1.87,1.22-2.26,1.23-.44.01-.7.22-.76.29-.41.28-1.54.96-2.07.96-.37,0-.88.17-1.36.33-.34.11-.85.28-.96.24-.14-.1-.17-.95-.19-1.32,0-.25-.02-.48-.04-.65-.06-.42-.54-.9-1-1.36-.23-.23-.44-.44-.54-.6-.1-.14-.09-.3-.07-.57.03-.37.08-.81-.3-1.35-.34-.49-.4-.76-.48-1.12-.06-.24-.12-.52-.28-.91-.06-.14.08-.5.16-.74.13-.36.22-.61.06-.76-.07-.06-.17-.09-.26-.07-.47.1-1.1,1.45-1.1,1.46-.18.4.18,1.44.63,2.66.04.1.08.2.1.29.12.32.16.53.21.75.08.34.16.74.5,1.54.32.76.74,1.23,1.05,1.58.19.21.37.41.34.5-.06.32.03,1.12.42,1.61.19.24.44.37.71.39.33.01.88-.06,1.53-.15.92-.12,2.07-.28,2.44-.12.01,0,.03.01.03.03.1.32-.54,1.38-.89,1.96-.27.45-.43.7-.46.86-.08.33-2.03,2.17-2.66,2.57-.41.26-1.32,1.59-2.28,3.05-.23.36-.42.64-.5.75-.25.34.06,1.24.62,2.67.21.54.41,1.05.45,1.32.11.58-.19,1.69-.5,2.14-.08.12-.14.16-.17.16-.51.08-1.65,1.03-1.81,1.73-.08.35.17.83.43,1.35.17.34.5.96.35,1.05-.33.21-1.1.71-.73,1.45.14.3-.41,1.59-.73,2.36-.17.39-.32.76-.42,1.04-.17.5-.78.71-1.36.91-.42.14-.82.28-1.07.54-.28.28-.88.25-1.28.06-.23-.1-.3-.21-.29-.25.05-.54-.87-1.93-1.58-2.25-.6-.27-1.91-2.51-1.82-2.94.14-.65-.38-1.27-1.38-2.2-.61-.57-.85-2.02-.79-3.1.04-.66.19-.93.25-.98.39-.28.18-1.33-.43-3.44-.15-.53-.28-.99-.3-1.17-.04-.39-.39-.68-.82-1.06-.45-.39-.95-.83-1.27-1.47-.32-.68-.1-1.22.09-1.65.14-.35.3-.71.03-.99-.22-.22-.64-.53-1.05-.83-.33-.25-.79-.58-.84-.68-.03-.08-.1-.12-.21-.15-.39-.12-1.52.13-2.05.45-.21.12-.43.04-.72-.1-.22-.1-.5-.23-.69-.01-.12.12-.99.25-1.76.3-.56-.54-1.87-1.89-2-2.38-.06-.21-.11-.58-.17-.96-.12-.84-.23-1.71-.54-2.06-.36-.43-.35-1.74.01-2.29.41-.64,1.27-2.63,1.39-3,.02-.08.06-.21.1-.37.15-.61.44-1.74.81-2.37.06-.09.11-.19.17-.29.45-.77,1-1.74,1.92-2.11,1.04-.41,1.89-1.37,2.58-2.14.08-.08.14-.17.22-.24.76-.84,1.61-1.38,1.92-1.45.17-.03.43.07.7.17.25.1.52.21.79.23.56.04,1.63-.2,2.21-.38.55-.17,2.38.32,2.67.59.16.15-.15.68-.39,1.06-.22.37-.41.7-.41.95,0,.64,1.62,2,2.47,2.21.54.14.77-.34.94-.7.09-.18.18-.37.28-.45.32-.25,1.74.64,2.5,1.36.54.5,1.38.3,1.99.15.2-.05.39-.09.51-.1h.06c.2-.01.61-.03.9-.16.3-.13.36-.41.41-.65.01-.08.03-.15.06-.22.07-.21.3-.34.61-.52.05-.03.09-.06.14-.08.43-.25.39-.65.37-.87v-.1c0-.07-.03-.13-.08-.18-.14-.14-.49-.15-1.03-.14h-.23c-.2,0-.26-.06-.34-.13-.06-.06-.14-.13-.27-.17-.17-.06-.28,0-.36.05-.1.06-.26.14-.71.12-.12,0-.21-.04-.28-.12-.08-.1-.2-.37-.09-1.03.06-.05.23-.13.34-.19.21-.11.43-.23.56-.34.21-.17.54-.42.98-.61.34-.15,1.02-.35,1.76,0,.76.37,2.78.32,3.12-.2.24-.37-.18-.88-.55-1.32-.13-.16-.26-.32-.3-.4-.03-.08.13-.27.24-.4.16-.19.33-.4.34-.63,0-.13-.05-.21-.1-.26-.14-.14-.39-.1-.6-.06-.06,0-.12.02-.15.02h-.03c-.21,0-.7,0-1.03.45-.07.09-.09.21-.06.32.04.16.17.31.36.43-.12.04-.32.1-.68.14-.14.02-.21.02-.25.01.01-.05.04-.12.06-.17.04-.12.1-.26.12-.41.03-.24,0-.41-.12-.52-.17-.17-.45-.13-.75-.07-.51.1-1.14.76-1.31.97-.03.05-.17.13-.29.2-.29.17-.59.36-.57.63,0,.22-.24.8-.43.97-.14.14-.63.11-.72.03-.15-.14-.41-.08-.74,0-.19.05-.41.1-.54.09-.13,0-.23.03-.3.1-.11.12-.08.28-.04.43.02.09.04.19.02.25-.09.21-.34.87-.32,1.16,0,.06-.18.25-.69.5,0-.15.06-.48.17-.73.03-.09.08-.15.12-.22.14-.21.23-.41-.06-.74-.06-.06-.21-.37.15-1.61.1-.33-.08-.59-.28-.86-.03-.05-.07-.1-.1-.15-.08-.12-.14-.43-.2-.7-.08-.41-.15-.76-.33-.92-.1-.08-.21-.11-.33-.08-.35.08-.61.62-.67.72-.17.35-.02.86.1,1.1.02.03.04.08.06.12.1.2.23.47.44.7.14.15.15.41.13.57-.1-.09-.28-.25-.45-.1-.1.09-.11.23-.12.38,0,.17-.02.34-.13.48-.14.16-.23.12-.23.11l-.05-.04h-.05s.02-.04.04-.08c.24-.43.14-1.21-.25-1.88-.14-.25-.17-.56-.2-.86-.03-.37-.07-.74-.32-.99-.39-.36-.68-.13-.88.01-.08.06-.17.13-.27.17-.08.03-.09.03-.2-.08-.12-.11-.32-.28-.7-.28-.5,0-.54.3-.56.48-.02.14-.03.21-.15.28-.21.12-.39.18-.59.23-.19.06-.41.12-.69.25-.43.2-.66.64-.83.96-.06.1-.13.25-.17.27-.21.13-1.08.52-1.48.5-.25-.01-.48.03-.65.06-.14.03-.28.06-.35.03-.07-.03-.16-.27-.21-.41-.06-.15-.12-.3-.19-.44-.09-.16,0-.52.06-.79.05-.2.09-.37.08-.5,0-.08.23-.25.71-.52.1-.06.19-.1.26-.15.41-.25.72-1.2.81-1.62,0-.03.01-.08.11-.09.23-.03.64.15.72.3.21.38,1.14.76,1.57.72.37-.04.74-.52,1.09-.98.06-.08.12-.16.18-.23l.04-.06c.26-.33.29-.37.25-.7,0-.04,0-.09-.01-.15-.01-.15-.02-.31-.03-.46-.01-.23-.02-.41-.04-.54.06,0,.13,0,.19.01.38.03.67.05.84-.06.04-.03.06-.03.19.13.05.06.1.12.16.17.06.04.15.08.3.04.24-.07.58-.36.67-.57.02-.05.25-.16.83-.11.33.03.63-.07.83-.25.12-.12.18-.25.17-.4.03-.06.28-.12.37-.14.05-.01.09-.02.13-.03.08-.02.41-.03.67-.03.55,0,.83-.02.96-.08.19-.08.19-.28.19-.45,0-.21,0-.51.27-.82.05-.06.24-.03.39.04-.03.06-.1.15-.15.21-.16.21-.34.44-.35.68-.03.43.02.56.41.61.04,0,.1.01.17.02.34.04,1.06.13,1.36.29.49.26,1.3-.07,1.56-.25.17-.12.28-.34.4-.56.07-.12.17-.31.22-.34.04-.03.08-.02.1-.02.05.01.1.06.12.12.05.11.13.15.19.17.16.05.32-.06.5-.17.05-.03.1-.07.16-.1.24-.14.26-.39.28-.56,0-.03,0-.07.01-.1h.19c.31,0,.78.01.95-.33.03-.06.03-.13,0-.19-.06-.13-.22-.18-.48-.24-.06-.01-.12-.03-.17-.04-.08-.13-.26-.5-.3-.65.05-.09.31-.28.44-.37.12-.08.21-.14.27-.21.11-.11.5-.11.79-.11.34,0,.66-.22.85-.43.19-.21.3-.45.28-.66-.01-.11-.08-.21-.18-.25-.37-.18-1.29.27-1.34.3-.1.07-1.02.48-1.58.64-.7.21-.68.91-.65,1.52,0,.06,0,.1,0,.11-.08,0-.25-.11-.32-.14-.06-.03-.1-.06-.14-.08-.07-.03-.14-.03-.22,0-.18.08-.37.39-.55.93-.15.43-1.56.82-2.01.81.03-.06.09-.14.12-.19.04-.06.08-.1.1-.14.05-.1.12-.21.19-.34.3-.53.59-1.03.28-1.25-.17-.12-.43-.08-.74-.04-.14.02-.37.06-.45.03,0-.06.06-.26.61-.7.23-.18,1.1-.98,1.24-1.39.01-.05.15-.14,1.08-.12h.2c.28,0,1.11-.08,1.31-.2.08-.04.15-.13.27-.24.14-.15.36-.38.5-.41.08-.02.15-.03.22-.05.19-.04.37-.08.55-.17.08-.03.17-.09.25-.15.19-.12.42-.28.62-.26.08,0,.14.02.22.03.27.05.6.11,1-.24.35-.31,1.89-.21,2.31-.02.13.06.17.23.21.5.04.27.09.58.35.72.14.08.28.13.4.19.18.08.32.14.43.23-.06.09-.23.25-.34.36-.19.19-.37.36-.45.52-.08.17.01.28.05.31.29.25,1.36-.34,1.36-.35.04-.03.09-.07.14-.12.08-.08.22-.21.3-.21,0,0,.03,0,.06.04.12.14.25.21.41.23.28.01.55-.19.91-.52.32-.3.9-.16,1.36-.05.14.03.28.07.41.09.28.04.45-.08.61-.2.19-.14.39-.29.94-.22.14.02.27.03.38.06.39.06.65.1.84-.06.19-.16.25-.45.28-.97.04-.61.17-.73.19-.75h.02s.04.01.04.01c.45.05,1.01.13,1.11.19.22.19,1.27.41,1.67.34.17-.03.23-.13.26-.19.09-.21-.11-.48-.28-.71-.01-.02-.03-.04-.04-.06.07-.05.17-.1.26-.14.38-.21.61-.35.63-.56.02-.11.36-.49.82-.87.07-.06.17-.13.28-.22.55-.41.83-.65.92-.85.28-.04,1.43.23,1.65.36.04.1-.03.44-.07.63-.07.38-.13.65,0,.81.21.23.47.02.64-.12.1-.09.22-.19.36-.25.13-.07.27-.13.4-.19.27-.12.5-.23.63-.37.11-.13,1.03-.59,1.51-.68.18-.03.26.04.41.23.11.13.25.3.47.41.46.24.7-.03.92-.28.08-.1.17-.2.28-.29.14-.11.21-.23.21-.37.01-.21-.14-.37-.28-.51-.06-.06-.13-.13-.15-.19.05-.06.28-.14.4-.19.1-.03.2-.08.28-.12.11-.06.2-.13.28-.2.17-.14.31-.26.61-.23.39.03.7-.18.9-.37,2.81.95,5.51,2.18,8.03,3.64l.02.02Zm-41.31-1.28c.13.05.22.12.23.19.01.07-.05.18-.17.29-.08.08-.14.15-.19.21-.15.18-.2.23-1.07.34-.34.04-.61,0-.79-.16-.06-.06-.11-.12-.14-.18.58-.32,1.17-.62,1.76-.91.09.08.21.17.37.22h0Zm6.83,82.66c-.28-.47-.81-1.37-1.12-1.76-.23-.3-.34-1.16-.12-1.68.08-.18.17-.27.29-.28.39-.04.9-.35,1.4-.64.35-.21.84-.5.99-.48.42.07.94-.43,1.44-.92.14-.15.29-.28.41-.38.18-.15.34-.15.56-.15.28,0,.62,0,1.05-.32.28-.19.52-.46.76-.72.43-.47.85-.92,1.4-.94.99-.03,2.76.23,3.1.48.12.09.23.19.34.28.25.23.52.47.88.52.5.08,1.94-.39,2.73-.75l.16-.08c.71-.32,1.1-.5,1.72-.47.03,0,2.49.13,2.82-.02.19-.08,1.56-.04,1.92.24.08.06.15.12.23.2.39.34.83.73,1.33.73.12,0,.28,0,.43-.02.45-.03,1.07-.08,1.29.15.18.18.52.3.92.44.44.16.99.35,1.07.59.13.39.43.81.65,1.12.09.12.19.25.2.3.04.15-.1,1.07-.19,1.45-.02.08-.06.19-.1.3-.12.32-.26.68-.14.93.02.04.04.1.08.17.08.19.31.7.37.94-4.58,1.6-9.51,2.47-14.64,2.47-4.24,0-8.34-.59-12.23-1.71h.02Zm27.2-.88c-.06-.23-.19-.54-.38-.96-.03-.06-.06-.12-.07-.16-.05-.12.08-.46.15-.65.05-.12.09-.24.12-.34,0-.01.3-1.36.18-1.67-.04-.08-.1-.19-.24-.38-.21-.29-.49-.68-.6-1.02-.14-.41-.72-.62-1.29-.82-.32-.12-.66-.23-.79-.36-.34-.35-1.03-.3-1.57-.26-.15,0-.29.02-.41.02-.35,0-.74-.34-1.09-.64-.08-.08-.17-.15-.24-.21-.47-.39-2.01-.43-2.29-.29-.19.07-1.72.04-2.65-.01-.7-.04-1.17.17-1.89.5l-.16.08c-.83.38-2.15.78-2.52.72-.25-.04-.46-.23-.7-.44-.12-.1-.23-.21-.37-.3-.48-.34-2.41-.59-3.33-.55-.7.03-1.19.55-1.65,1.06-.23.25-.46.5-.7.67-.34.24-.61.25-.85.25s-.51,0-.79.24c-.12.11-.27.25-.42.39-.35.34-.89.86-1.13.82-.28-.05-.65.16-1.24.52-.44.26-.94.56-1.25.59-.18.02-.43.12-.59.5-.25.6-.17,1.61.17,2.05.23.29.61.9.89,1.38C14.15,82.83.73,65.78.73,45.65.73,28.9,10.03,14.27,23.75,6.68c.06.1.12.19.23.28.21.17.48.26.8.26.08,0,.17,0,.26-.02.97-.12,1.08-.2,1.3-.46.04-.05.1-.11.17-.18.28-.26.3-.49.27-.63-.04-.2-.21-.36-.46-.45-.04-.01-.08-.03-.12-.06,5.78-2.75,12.24-4.29,19.05-4.29,4.82,0,9.45.77,13.8,2.19-.13.09-.29.16-.46.14-.46-.04-.7.16-.88.32-.07.06-.14.12-.21.15-.07.03-.16.07-.25.1-.3.11-.75.28-.61.65.05.12.14.22.24.32.08.08.17.18.17.23,0,0,0,.04-.08.1-.14.11-.24.23-.33.34-.23.26-.28.3-.47.2-.16-.08-.26-.21-.36-.32-.17-.2-.36-.43-.75-.36-.5.09-1.53.56-1.72.8-.07.08-.29.18-.5.28-.14.06-.28.12-.42.2-.17.09-.31.21-.42.3-.04.03-.08.07-.12.1,0-.11.04-.3.07-.43.09-.44.16-.82-.06-.98-.24-.18-1.67-.55-2.04-.41-.12.05-.16.14-.17.18-.05.13-.59.54-.81.71-.12.09-.22.17-.3.23-.28.23-.9.78-.95,1.1-.06.07-.3.21-.44.28-.33.19-.55.3-.48.52.02.06.07.12.15.23.06.08.17.23.21.32-.36.03-1.2-.17-1.32-.25-.16-.14-.78-.23-1.28-.28-.08-.03-.19-.04-.3.01-.23.12-.35.45-.39,1.05-.02.29-.06.63-.14.71-.07.06-.28.02-.56-.02-.11-.02-.24-.03-.39-.06-.69-.09-.99.13-1.2.29-.14.1-.21.15-.34.13-.1-.01-.23-.05-.37-.08-.52-.12-1.23-.3-1.7.14-.21.2-.49.43-.63.43-.03,0-.08-.01-.14-.1-.11-.13-.23-.17-.32-.17-.23-.01-.43.17-.57.3-.03.03-.08.07-.09.08-.1.06-.46.22-.72.3.07-.07.14-.14.22-.21.3-.28.48-.46.47-.66,0-.08-.04-.15-.1-.21-.16-.13-.35-.22-.56-.32-.12-.06-.24-.11-.38-.18-.1-.06-.13-.24-.16-.44-.04-.28-.1-.64-.42-.78-.49-.21-2.19-.37-2.69.08-.26.23-.44.2-.69.15-.08-.01-.17-.03-.26-.04-.32-.02-.61.17-.84.32-.08.06-.15.1-.21.12-.15.07-.3.1-.48.14-.07.01-.14.03-.23.06-.24.06-.48.32-.68.52-.06.07-.15.17-.19.18-.11.06-.79.15-1.13.15h-.19c-.69-.03-1.32-.01-1.44.37-.09.26-.79.96-1.12,1.22-.41.32-.86.74-.72,1.13.1.3.48.24.85.19.14-.02.37-.06.45-.03,0,.14-.25.57-.37.79-.08.13-.15.25-.2.37,0,.01-.04.06-.06.09-.12.17-.28.39-.19.59.06.11.17.17.34.18.42.01,2.12-.35,2.37-1.06.14-.4.27-.62.33-.7.02,0,.03.02.06.03.21.12.48.28.7.14.12-.08.19-.23.18-.44-.03-.64-.02-1.03.39-1.16.55-.17,1.53-.59,1.67-.69.15-.1.78-.32.96-.29,0,.1-.08.23-.18.34-.17.19-.39.31-.57.31-.51,0-.85.01-1.05.21-.03.03-.13.1-.22.17-.38.26-.63.45-.6.69.03.27.34.81.37.85.06.09.17.12.36.17.02,0,.04,0,.06.01-.13.03-.31.03-.45.03-.19,0-.33,0-.43.06-.12.09-.14.23-.15.37-.01.14-.03.23-.1.28-.06.03-.12.08-.17.11-.06.03-.12.08-.18.11-.08-.13-.19-.23-.32-.27-.13-.04-.27-.02-.39.06-.14.08-.23.27-.34.48-.09.17-.19.37-.29.43-.23.17-.88.38-1.18.22-.37-.19-1.1-.28-1.5-.33-.06,0-.12-.01-.16-.02-.03,0-.08-.01-.11-.02v-.21c0-.12.17-.33.28-.48.17-.22.38-.5.15-.68-.25-.19-.72-.3-.95-.03-.34.41-.35.81-.35,1.05v.13c-.14.03-.52.03-.79.03-.4,0-.65.01-.76.05-.03,0-.08.02-.12.03-.25.06-.66.16-.65.52,0,.03-.02.08-.06.12-.09.09-.28.17-.54.15-.47-.03-1.05,0-1.19.34-.06.12-.32.34-.43.37-.02-.02-.05-.06-.07-.08-.1-.13-.32-.41-.65-.22-.09.06-.44.03-.63,0-.32-.03-.49-.04-.58.08-.04.06-.06.13-.03.21.03.08.05.38.06.62,0,.16.01.32.03.48,0,.06,0,.11.01.16.01.12-.05.27-.18.43l-.05.06c-.06.08-.12.15-.19.24-.25.32-.62.82-.84.84-.31.03-1.09-.32-1.21-.54-.17-.29-.72-.54-1.1-.48-.22.03-.37.17-.41.37-.11.52-.41,1.25-.65,1.38-.06.04-.15.09-.25.14-.43.23-.92.5-.9.85,0,.08-.03.25-.08.41-.09.37-.19.77-.03,1.06.07.12.12.25.17.39.11.28.21.54.43.63.17.06.34.03.55,0,.17-.03.36-.06.57-.06.55.03,1.5-.43,1.69-.56.11-.07.19-.21.29-.41.14-.28.34-.65.66-.8.26-.12.45-.18.63-.23.21-.06.42-.12.67-.27.28-.16.31-.39.32-.55.02-.14.02-.15.2-.15.25,0,.35.09.46.19.12.11.29.25.58.14.14-.06.25-.14.36-.21.21-.16.26-.19.41-.04.16.14.19.43.21.75.03.32.06.69.25,1.01.32.55.42,1.21.25,1.52-.11.19-.12.36-.04.48.06.1.17.14.27.14.14.07.41.09.67-.2.19-.22.21-.5.22-.68.08.08.18.15.3.14.08,0,.14-.05.18-.12.14-.23.17-.81-.13-1.14-.18-.2-.3-.44-.39-.62-.03-.05-.05-.1-.07-.14-.08-.15-.2-.55-.1-.77.12-.25.31-.5.41-.52h.02c.08.07.16.45.21.7.07.33.13.65.25.83.03.06.08.11.11.16.18.25.27.39.22.55-.3,1.03-.32,1.67-.07,1.96.12.14.12.14.03.29-.05.07-.1.16-.16.28,0,0-.37.91-.08,1.19.04.04.17.13.37.03.64-.3.96-.59.94-.87,0-.17.17-.71.3-1.01.07-.16.03-.32,0-.46,0-.03-.01-.06-.02-.09.19,0,.41-.05.63-.1.14-.03.35-.08.42-.08.25.2.93.21,1.21-.06.26-.25.55-.92.54-1.25.02-.08.28-.23.4-.31.17-.1.31-.19.39-.3.17-.21.73-.76,1.08-.83.32-.06.41-.05.43-.03,0,0,.03.06,0,.2-.02.12-.06.23-.1.34-.07.19-.14.39-.03.54.12.16.37.14.61.11.93-.13,1.08-.31,1.1-.46.01-.07,0-.21-.2-.3-.22-.1-.3-.24-.29-.27.23-.31.54-.31.73-.31h.03c.06,0,.13-.01.21-.02.07-.01.2-.03.27-.03-.03.11-.14.25-.25.39-.19.23-.41.5-.29.77.06.13.19.29.35.49.17.21.62.74.52.9-.15.23-1.9.44-2.65.07-.87-.43-1.67-.19-2.07-.01-.48.21-.84.48-1.07.67-.1.08-.31.19-.5.29-.39.21-.51.28-.53.41v.03c-.11.63-.05,1.07.17,1.34.13.16.32.25.54.26.54.01.76-.1.9-.17.02-.01.06-.03.06-.03h.02s.08.04.13.09c.1.1.25.23.59.23h.24c.21,0,.6,0,.74.03v.06c.02.23.02.39-.19.52-.05.03-.09.06-.14.08-.36.21-.66.39-.77.72-.03.08-.05.17-.06.25-.05.22-.08.35-.21.4-.22.1-.59.12-.77.13h-.07c-.16.01-.35.06-.57.11-.57.14-1.27.31-1.65-.06-.43-.4-2.29-1.91-2.98-1.38-.17.14-.28.36-.39.57-.19.39-.3.56-.53.5-.79-.2-2.19-1.45-2.19-1.86,0-.16.19-.48.37-.76.32-.54.69-1.16.32-1.51-.41-.39-2.38-.88-3.02-.67-.64.2-1.62.39-2.08.37-.21-.01-.44-.11-.68-.2-.32-.13-.63-.25-.9-.19-.43.09-1.34.7-2.12,1.56-.07.08-.14.16-.22.25-.7.77-1.49,1.65-2.45,2.04-1.04.42-1.63,1.44-2.1,2.27-.06.1-.11.19-.17.29-.4.68-.7,1.84-.85,2.47-.04.15-.07.28-.09.34-.11.36-.96,2.31-1.34,2.91-.45.7-.45,2.18.01,2.73.23.28.36,1.2.45,1.87.06.41.11.77.17,1.01.19.7,1.96,2.4,2.16,2.6l.06.06h.08c.54-.04,1.82-.15,2.08-.43.05,0,.18.06.26.1.28.13.68.32,1.07.08.51-.31,1.56-.48,1.76-.41.09.14.36.34.93.77.38.28.81.59,1.01.8.09.09.04.25-.1.59-.2.48-.48,1.14-.08,1.96.34.72.91,1.2,1.36,1.59.36.31.67.58.7.83.03.22.15.67.32,1.23.17.6.39,1.34.52,1.96.19.95.06,1.07.06,1.08-.28.2-.37.79-.41,1.25-.08,1.16.18,2.71.9,3.39,1.02.94,1.36,1.45,1.27,1.86-.13.63,1.32,3.04,2.03,3.35.6.27,1.41,1.52,1.37,1.89-.02.23.17.46.5.61.24.11.53.18.82.18.33,0,.66-.09.88-.31.19-.19.55-.32.93-.45.63-.22,1.36-.48,1.58-1.14.09-.27.25-.63.41-1.02.57-1.34.93-2.26.72-2.67-.17-.33,0-.6.6-.99.42-.27.11-.88-.22-1.53-.2-.39-.45-.88-.4-1.1.12-.54,1.13-1.38,1.52-1.45.14-.02.28-.12.41-.31.36-.52.69-1.74.56-2.42-.06-.29-.25-.79-.48-1.38-.27-.68-.82-2.12-.67-2.32.09-.12.28-.41.52-.76.63-.94,1.79-2.71,2.17-2.94.49-.31,2.68-2.25,2.82-2.79.03-.11.23-.44.42-.76.61-1.01,1.07-1.82.93-2.26-.03-.12-.12-.21-.23-.26-.46-.21-1.56-.05-2.63.1-.6.08-1.16.16-1.46.14-.17,0-.32-.09-.44-.25-.31-.39-.39-1.07-.34-1.31.05-.28-.15-.5-.43-.81-.29-.33-.7-.78-.99-1.47-.32-.78-.4-1.14-.48-1.48-.05-.24-.1-.46-.22-.8-.03-.09-.07-.19-.11-.29-.25-.68-.77-2.09-.64-2.38.19-.41.52-.94.72-1.16-.03.08-.06.19-.09.26-.12.34-.26.73-.15,1.01.14.36.21.62.25.85.08.38.16.71.54,1.25.3.43.27.78.24,1.11-.03.27-.05.55.13.81.13.19.35.41.59.65.38.39.85.86.9,1.16.02.15.03.38.04.61.03.9.08,1.5.4,1.63.23.1.59-.01,1.23-.23.44-.14.94-.31,1.25-.31.74,0,2.13-.92,2.28-1.03h.02s.01-.03.01-.03c0,0,.17-.18.52-.19.48-.01,2.16-.84,2.55-1.38.14-.21.38-.43.58-.63.33-.32.51-.5.51-.69,0-.01.02-.06.03-.08.21-.5.23-1.1-1.21-1.84-.05-.17-.18-.59-.39-.87-.08-.1-.17-.12-.23-.13-.19-.01-.37.16-.59.38-.23.24-.53.53-.78.48-.51-.11-.85-.21-.87-.38,0-.12-.07-.19-.11-.22-.12-.1-.27-.07-.4-.05-.04,0-.1.01-.14.01-.03-.08-.09-.25-.14-.41-.12-.37-.28-.84-.45-1.09-.14-.2-.1-.41-.06-.48.14.07.54.39,1.04.87.01.01,1.08.96,1.72.96.11,0,.2-.03.28-.09.2-.17.51-.34.71-.32.06,0,.1.03.14.08.27.37,1.29.95,1.77.95.13,0,.39.04.67.08.85.13,1.28.18,1.46.02.09-.08.45-.21.75-.16.12.02.2.06.24.13.06.09.1.19.16.3.17.34.37.74.76.88.17.06.33.3.48.5.18.26.34.49.57.52.17.02.44-.03.72-.08.16-.03.39-.07.5-.07.04.16.03.6.03.96-.02.99-.05,2.23.54,2.67.61.46.9,1.37,1.06,1.86.04.12.07.21.1.28.02.06.05.14.08.22.1.32.23.76.57.94.17.09.37.1.6.03.63-.19.76-.53.88-.81.04-.09.08-.17.12-.23.23-.31.62-1.12.71-1.56.05-.23,0-.55-.06-.87-.03-.15-.06-.37-.06-.47h.23c.33,0,.88,0,.93-.45.04-.41.26-.75.44-.81.33-.1.92-.76,1.06-1.07.03-.06.24-.17.37-.23.31-.16.67-.34.72-.66.02-.1.03-.2.03-.28.04-.34.06-.36.19-.36s.29.04.45.08c.34.08.72.18.93-.1.07-.09.13-.2.19-.3.02-.04.05-.1.08-.14h0c.06.1.11.21.17.33.3.57.5.93.72,1.01.1.03.18.16.26.29.06.08.11.17.19.25.1.11.22.14.3.15.01,0,.03,0,.04,0,0,.01.01.04.01.1v.31c-.01.65,0,1.13.28,1.25.53.23.96.19,1.14-.12.1-.17.28-.24.37-.25.05.11.14.37.22.59.14.37.29.8.4,1.05.09.2.06.53.03.85-.03.32-.06.66.01.93.03.09.06.21.08.35.13.61.32,1.52,1.02,2.05.18.39.84,1.84,1.23,2.06.21.12.6.29.93.41.62.22.82.19.92.07.18-.2-.05-.43-.29-.67-.11-.11-.34-.33-.34-.41,0-.04.01-.08.02-.14.07-.38.2-1.1-.37-1.54-.34-.27-.68-.41-.92-.52-.15-.06-.28-.12-.33-.17-.04-.04-.09-.26-.12-.41-.06-.3-.13-.64-.34-.85-.17-.18-.31-.23-.41-.25-.07-.65,0-1.4.18-1.47.28-.11.37-.05.59.1.05.03.11.08.17.11.27.16.4.4.54.65l.02.04c.1.19.39.31.7.44.16.07.42.18.46.24.02.06.03.17.03.26.01.23.04.56.33.6.34.06.94-.38,1.04-.68.03-.08.04-.16.06-.23.01-.06.03-.14.05-.19.26-.11,1.4-.85,1.45-1.24.03-.28-.16-1.61-.59-1.87-.39-.23-1.56-1.27-1.58-1.52,0-.28-.16-.45-.28-.6-.08-.08-.14-.16-.15-.22-.03-.18.27-.72.4-.79.21,0,.62-.15.84-.29.03.03.05.07.08.1.15.19.29.39.49.39.22,0,.28-.19.31-.3.04-.14.08-.26.3-.32.92-.25,1.34-.51,1.35-.83.1-.06.48-.1.83-.09h.06l.05-.03c.12-.08,1.18-.85,1.37-1.36.16-.43.17-1.3.17-1.56.17-.19.64-.81.5-1.29-.1-.32-.34-.59-.53-.79-.11-.12-.21-.23-.25-.32-.08-.16-.22-.26-.35-.36-.19-.14-.24-.18-.21-.24.03-.1.12-.17.21-.23.1-.08.21-.16.24-.3,0-.06,0-.14-.06-.23-.19-.25-.76-.61-1.03-.68-.08-.03-.33-.3-.37-.54-.01-.1.02-.14.04-.15.15-.12.32-.31.48-.59.09-.15.1-.33.03-.5-.07-.17-.21-.28-.38-.32-.46-.11-.81-.14-1.02-.1-.1.03-.45-.14-.65-.37-.08-.1-.1-.17-.09-.19.01-.03.11-.1.36-.12.17.06.66.23.86.23.14,0,.26-.1.44-.25.17-.14.45-.37.57-.3.1.06.14.25.17.42.05.23.12.58.46.56h.01c.2,0,.56.37.75.56.07.08.14.14.19.19.03.03.08.17.12.27.12.31.33.9,1,.65.48-.17.8-.48.88-.83.06-.22.04-.57-.32-.96-.36-.39-.92-.74-1.34-1.01-.2-.12-.44-.28-.5-.34-.01-.1.08-.42.13-.63.07-.25.14-.52.17-.74.02-.19.03-.37.04-.53,0-.11.01-.24.02-.34.02.01.04.03.06.04.15.1.39.25.57.09.14-.13.52-.63.5-1.34,0-.34-.15-.91-.28-1.45-.1-.42-.23-.9-.21-1.04.01-.12.03-.31-1.08-1.54-.55-.61-1.12-1.18-1.21-1.25-.03-.02-.07-.1-.12-.17-.19-.3-.54-.84-1.09-.63-.14.06-.3.14-.46.23-.17.1-.49.27-.59.25,0-.01-.02-.06,0-.17.08-.84-.47-1.8-.58-1.98v-.02c-.33-.52-.18-.7-.03-.79.54-.34.73-.54,1.06-1.12.15-.27.27-.3.39-.34.1-.03.25-.08.34-.28.04-.08.04-.18.04-.28,13.06,7.77,21.83,22.03,21.83,38.29,0,19.3-12.34,35.77-29.55,41.93h.06Z"/><path class="cls-3" d="m82.68,58.61c-.02-.1.11-.57.21-.91.15-.53.32-1.13.32-1.52,0-.37-.11-.6-.2-.79-.09-.19-.14-.28-.07-.49.15-.43.23-1.4-.07-1.65-.1-.09-.24-.09-.37-.01-.36.21-.68.83-.9,1.23-.03.06-.06.12-.09.17-.07.12-.13.39-.23.85-.11.49-.37,1.65-.58,1.72-.26.02-1.2-.51-1.59-1.01-.11-.14-.17-.27-.15-.34.08-.23.24-.5.41-.76.2-.33.39-.64.42-.9.05-.52-.65-.9-1.34-1-.05,0-.08-.01-.12-.02-.3-.05-.35-.04-.64.09-.12.06-.29.12-.56.23-.53.21-.81.64-1.02.99-.23.37-.38.58-.66.59-.28.01-.39-.13-.53-.37-.12-.2-.3-.5-.7-.37-.41.14-.58.41-.75.68-.1.16-.2.32-.35.47-.22.22-.6.38-.91.5-.32.14-.53.22-.58.38-.13.19-1.35,1.12-1.99,1.33-.2.07-.55.1-.91.12-.84.07-1.71.14-1.83.71-.06.28-.31.76-.56,1.23-.34.66-.67,1.29-.67,1.66,0,.23.04.63.08,1.05.06.52.14,1.41.08,1.55-.01.02-.03.06-.06.09-.27.44-.9,1.47-.36,2.05.3.32,1.56.46,2.36.03.28-.15.41-.09.6.01.25.12.56.28,1.16,0,1.3-.63,2.35-.83,2.96-.59.38.16.58.72.76,1.21.16.46.31.86.6,1.01l.07.03c.48.23.71.35.68.94,0,.18-.03.36-.06.54-.08.52-.16,1.07.37,1.43.05.03.09.06.14.1.37.26.78.54,1.38.54.3,0,.66-.08,1.1-.26.76-.32,1.4-.92,1.98-1.44.42-.39.81-.74,1.18-.93.87-.43,2.61-2.05,2.69-3.45.03-.51.07-1.19.12-1.85.07-1.05.14-2.03.14-2.33,0-.33-.3-1.05-.66-1.9-.12-.3-.25-.57-.27-.65h-.01Zm.43,4.86c-.05.66-.09,1.35-.12,1.86-.07,1.21-1.65,2.72-2.49,3.14-.41.21-.82.59-1.26.99-.55.5-1.17,1.07-1.87,1.38-1.1.47-1.6.12-2.12-.26-.05-.03-.1-.07-.15-.1-.33-.23-.3-.54-.21-1.08.03-.19.06-.37.07-.57.04-.83-.39-1.04-.88-1.28l-.07-.03c-.16-.08-.3-.45-.42-.81-.2-.56-.43-1.2-.96-1.42-.22-.09-.47-.13-.74-.13-.81,0-1.78.37-2.52.72-.44.21-.63.12-.84.01-.21-.11-.48-.25-.94,0-.72.38-1.78.2-1.93.03-.34-.37.22-1.3.41-1.61.03-.04.05-.08.06-.1.11-.19.07-.71-.04-1.77-.04-.41-.08-.81-.08-1.02,0-.28.33-.93.63-1.5.27-.51.52-.99.58-1.32.07-.31.9-.38,1.51-.43.39-.03.75-.06,1-.14.59-.2,2.05-1.19,2.22-1.54.06-.04.24-.12.38-.18.34-.14.76-.31,1.03-.59.18-.18.3-.37.41-.53.16-.25.28-.43.56-.53.11-.03.14-.02.28.21.14.23.34.56.85.54.49-.02.72-.4.95-.76.21-.33.43-.68.85-.84.28-.1.46-.19.57-.23.14-.06.29-.08.43-.06.04,0,.08.01.12.02.56.08,1.05.37,1.03.61-.01.18-.19.47-.36.74-.17.28-.35.56-.44.84-.06.19,0,.43.2.68.44.56,1.47,1.19,1.91,1.15.43-.03.63-.81.91-2.01.07-.31.15-.67.2-.75.03-.05.06-.11.1-.18.18-.34.47-.89.74-1.07.08.18.09.81-.06,1.21-.12.34-.02.56.08.77.08.17.16.33.16.62,0,.34-.16.92-.3,1.43-.17.6-.26.92-.21,1.1.03.11.12.33.28.71.23.55.63,1.47.63,1.76s-.07,1.31-.14,2.3v.02Z"/><path class="cls-3" d="m73.95,72.42c-.45.11-.68.81-.68,1.25-.01.45.19.58.3.61.06.02.13.03.2.03.48,0,1.13-.39,1.41-.87.16-.26.15-.55,0-.77-.22-.3-.68-.39-1.23-.26h0Zm.92.84c-.26.43-.92.76-1.19.67-.04-.03-.08-.21-.02-.52.07-.33.24-.61.37-.65.47-.12.75,0,.85.12.1.13.03.28-.01.37h0Z"/><path class="cls-3" d="m33.07,53.13c-.12-.32-.23-.34-.55-.24h-.02c-.17.06-.26.25-.38.5-.09.19-.21.45-.34.51-.08.03-.19.07-.32.12-.61.21-1.1.39-1.21.71-.04.11-.12.21-.19.32-.14.19-.29.41-.23.69,0,.03.01.08.03.13.31,1.36.32,1.74.3,1.85-.26.22-.34.7-.16,1.06.03.06.03.16.04.25.01.25.03.63.53.85.12.06.24.11.34.16.23.12.43.22.67.22.12,0,.26-.03.42-.1.58-.28.68-.91.75-1.65.09-.96.21-1.58.35-1.85.11-.21.06-.52-.02-.88-.06-.28-.14-.72-.02-.81.06-.04.1-.08.16-.12.34-.25.53-.46.12-1.18-.14-.25-.21-.42-.25-.54h-.01Zm-.09,1.42c-.06.04-.12.08-.18.14-.28.23-.19.7-.1,1.16.05.23.1.54.06.63-.17.31-.3.94-.39,1.98-.07.77-.17,1.17-.54,1.35-.28.13-.42.06-.77-.11-.1-.05-.22-.11-.35-.17-.3-.13-.3-.3-.31-.53,0-.13-.01-.27-.08-.4-.11-.22-.05-.53.08-.62.19-.14.21-.52-.18-2.2-.01-.05-.02-.1-.03-.12-.03-.12.04-.23.17-.4.08-.12.17-.25.23-.41.07-.19.69-.39.99-.49.14-.05.26-.09.35-.12.26-.11.4-.42.53-.69.05-.11.12-.27.17-.3h.01s.06-.02.08-.03c0,.01.01.03.02.05.05.12.12.3.28.58.28.49.21.54-.02.71h0Z"/><path class="cls-3" d="m18.11,23.14h.04c.08.03.16.05.24.05.16,0,.3-.05.41-.13.16-.12.24-.31.24-.53s-.01-.4-.14-.52c-.12-.12-.31-.12-.48-.11-.54.03-.63.39-.65.69,0,.06,0,.1-.01.14-.03.29.08.34.34.42Zm.02-.38s0-.1.01-.16c.01-.28.07-.33.31-.34.17,0,.2,0,.21.01,0,.01.03.06.03.26,0,.11-.03.19-.1.24-.08.06-.21.08-.34.03h-.04s-.06-.03-.08-.03h0s0-.01,0-.01Z"/><path class="cls-3" d="m23.34,26.95h.28c.25,0,.41-.21.41-.41,0-.1-.04-.19-.11-.26-.05-.05-.14-.11-.3-.11-.54,0-1.05,0-1.05.33,0,.12.04.21.12.29.15.15.41.17.65.17h0Zm.28-.43h.04s0,.02,0,.04c-.01.01-.02.01-.03.01h-.12c-.13,0-.38.01-.5-.03.17-.03.49-.03.62-.03h0Z"/><path class="cls-3" d="m20.66,13.28s.08.1.08.13c0,0-.01.02-.04.04-.1.07-.25.12-.42.16-.23.06-.5.14-.69.32-.07.06-.13.12-.19.17-.21.18-.39.34-.42.55-.08.04-.26.08-.37.11-.29.07-.46.11-.51.27-.02.08,0,.15.06.21.32.34.69.52,1.07.52h.06c.22,0,.43-.12.64-.23.23-.12.47-.25.7-.23.68.05.76-.47.82-.78h0c.03-.18.09-.35.16-.54.06-.15.11-.31.16-.49.05-.17.07-.3.09-.41.03-.17.05-.28.12-.39.01-.03.02-.03.14-.03s.29,0,.46-.12c.21-.14.3-.36.36-.54.03-.1.08-.2.12-.28.13-.18.28-.41.16-.6-.12-.2-.41-.2-.81-.14-.45.07-.5.08-.65.2-.04.03-.09.07-.17.12-.57.36-.81.54-.81.76,0,.03-.05.14-.08.22-.11.26-.23.55-.16.77.03.1.09.17.14.25v-.03Zm.3-.21c-.03-.06-.08-.11-.1-.16-.03-.08.09-.37.15-.5.07-.16.11-.25.11-.34.06-.11.46-.37.63-.48.1-.06.16-.1.2-.14.09-.07.1-.07.49-.13.25-.04.37-.03.42-.03-.01.03-.05.09-.12.19-.09.12-.13.25-.18.37-.06.15-.1.29-.22.37-.08.06-.17.06-.27.06-.14,0-.34,0-.46.23-.09.17-.12.32-.15.5-.02.11-.04.23-.08.39-.05.17-.1.32-.15.47-.07.2-.14.39-.17.59h0c-.07.38-.12.52-.43.5-.34-.03-.64.13-.9.27-.18.1-.35.19-.49.19-.23.01-.46-.08-.68-.25.04,0,.08-.02.11-.03.33-.08.64-.16.64-.41,0-.08.15-.21.3-.34.06-.06.13-.12.2-.18.13-.12.33-.18.54-.23.19-.05.37-.1.53-.21.11-.08.18-.17.2-.28.03-.17-.06-.29-.14-.41h.02Z"/><path class="cls-3" d="m18.64,14.15c.11,0,.23,0,.37-.01h.07c.13,0,.27-.12.59-.43.08-.08.17-.17.22-.2.15-.12.32-.46.57-1.02h0c.08-.18.05-.36-.08-.49-.11-.11-.3-.19-.45-.13-.09.03-.14.12-.14.22,0,.2-.34.25-.48.26-.15.01-.26.06-.33.14-.11.13-.09.3-.08.41,0,.04.01.11,0,.14-.05.04-.14.08-.24.11-.22.08-.5.19-.68.46-.1.15-.06.27-.02.32.1.16.33.21.69.21h0Zm.14-.65c.14-.05.27-.1.37-.19.14-.13.12-.31.11-.44,0-.05-.01-.12,0-.14,0,0,.02-.01.08-.02.54-.04.72-.27.79-.45,0,0,0,0,.01.01,0,.01.01.03,0,.06h0c-.09.21-.35.81-.46.89-.06.05-.14.13-.25.23-.1.1-.3.28-.37.33h-.06c-.39.02-.58,0-.66-.01.11-.13.29-.2.46-.26h-.01Z"/><path class="cls-3" d="m41.25,7.95v.03s.05.06.06.09c.05.1.11.23.25.27.03,0,.06,0,.08,0,.11,0,.21-.06.28-.1.44-.3.73-.45,1.19-.63.09-.03.19-.08.29-.11.73-.28,1.03-.41,1.03-.65,0-.02.02-.08.03-.12.04-.13.09-.3-.02-.43-.08-.08-.19-.12-.34-.09-.17.03-.38.08-.61.14-.27.07-.57.15-.72.15-.08,0-.14,0-.19-.01-.13-.01-.34-.04-.43.23-.02.08-.03.14-.03.2,0,.03,0,.1-.01.11,0,0-.01.01-.06.02-.08.01-.17,0-.25,0-.17-.02-.52-.06-.57.31-.04.32.01.55.01.56v.03h.01Zm.34-.54s.11,0,.17,0c.1.01.23.02.35,0,.36-.06.37-.34.38-.47,0-.03,0-.08,0-.1h.03c.06,0,.14.01.23.01.19,0,.5-.08.81-.17.2-.06.41-.11.55-.13,0,.02-.01.04-.02.06-.02.06-.03.12-.04.17-.1.09-.55.26-.79.35-.1.04-.21.08-.3.12-.48.19-.79.36-1.25.66-.02.01-.04.03-.06.03-.01-.02-.02-.04-.03-.06-.01-.03-.03-.06-.04-.08,0-.06-.03-.22,0-.41h0Z"/><path class="cls-3" d="m40.86,9.53s.09.03.14.03c.07,0,.14-.02.21-.06.17-.1.29-.32.29-.5,0-.24-.03-.82-.37-.92-.14-.03-.3.01-.48.14-.16.12-.35.34-.35.57,0,.42.43.67.57.74Zm-.04-.98c.09-.08.17-.12.2-.12.05.04.11.28.11.56,0,.08-.08.18-.12.2-.08-.05-.34-.2-.34-.4,0-.04.05-.14.16-.24h0Z"/><path class="cls-3" d="m36.23,5.13c.07.11.19.19.33.21.03,0,.08,0,.11,0,.22,0,.48-.1.73-.3l.05-.03c.39-.31.48-.37.71-.37h.05c.6,0,1.2-.04,1.45-.37.12-.17.3-.5.41-.76.24-.54.23-.7.12-.8-.06-.06-.18-.12-.36.06-.17.15-.35.24-.55.34-.23.12-.48.23-.66.45-.3.34-.63.49-.74.41-.07-.05-.14-.14-.21-.23-.13-.17-.25-.31-.42-.31-.05,0-.14.02-.22.12-.1.13-.12.32-.14.5-.01.13-.03.32-.09.37-.04.03-.13.06-.21.08-.16.05-.34.1-.41.27-.04.1-.02.22.06.35h-.01Zm2.66-1.32c.14-.16.34-.25.55-.37.11-.06.23-.12.34-.19-.12.28-.3.63-.41.79-.16.21-.79.22-1.08.23.22-.1.43-.28.61-.48h0Zm-2.21,1.06c.12-.03.24-.07.34-.15.17-.14.19-.38.22-.61,0-.08.02-.17.03-.24.03.03.07.08.1.12.08.1.19.23.3.3.04.03.08.05.13.06-.17.07-.32.19-.57.39l-.05.03c-.31.24-.5.23-.56.22-.03,0-.06-.01-.08-.05,0,0,0-.01-.01-.02.04-.02.1-.03.15-.05Z"/><path class="cls-3" d="m54.65,4.3c.24.09.47.13.66.13.3,0,.52-.1.65-.3.21-.34-.08-.58-.24-.71-.06-.05-.12-.1-.15-.14-.23-.31-.78-.02-.94.08-.14.08-.32.32-.3.56,0,.1.06.29.33.39h0Zm.15-.62c.17-.1.4-.19.47-.17.06.08.14.14.21.2.21.17.19.19.16.23-.12.19-.52.14-.88.02-.04-.01-.09-.04-.09-.07,0-.07.07-.19.12-.21h0Z"/><path class="cls-3" d="m73.07,15.82c.1-.07.15-.17.16-.29.03-.44-.72-.99-1.01-1.16-.22-.13-.21-.21-.17-.45,0-.04.01-.08.01-.12.05-.42-.41-1.05-.92-1.28-.23-.1-.73-.45-1.18-.75-.6-.41-.85-.58-.98-.61-.16-.04-.32.1-.41.23-.12.18-.14.37-.03.52.08.11.29.34.61.68.17.19.35.37.41.45.12.14.58.68.92,1.06.17.2.32.36.35.4.19.22,1.14,1.32,1.41,1.39.03,0,.2.05.39.05.14,0,.3-.03.42-.11h.01Zm-.72-.29c-.17-.08-.88-.86-1.24-1.27-.04-.04-.18-.21-.35-.41-.34-.39-.8-.91-.92-1.05-.08-.1-.25-.28-.43-.47-.23-.24-.51-.55-.58-.65-.01-.03.05-.12.1-.17.14.07.52.33.83.54.48.33.98.67,1.23.79.41.18.73.69.7.9,0,.04,0,.08-.01.11-.04.27-.08.57.34.82.46.28.85.69.83.83t0,.02c-.08.06-.33.05-.5,0Z"/><path class="cls-3" d="m72.92,15.95c-.18.2.07,1.14.1,1.21.04.09.03.32-.01.7-.05.38.57,1.03.83,1.09h.05c.06,0,.1-.02.15-.06.1-.1.07-.23.03-.45-.01-.06-.03-.17-.04-.23.06.02.11.04.17.07.39.15.79.31,1.01.14.07-.06.14-.16.11-.36-.02-.14-.02-.34-.01-.54,0-.42.02-.9-.24-1.2-.28-.32-.7-.39-1.13-.18-.06,0-.21-.08-.3-.12-.27-.13-.54-.26-.71-.07h.01Zm.55.4c.24.11.44.21.61.13.2-.1.49-.17.7.08.17.19.15.6.14.95,0,.22,0,.42.02.6h0c-.12.02-.46-.11-.63-.18-.1-.03-.19-.08-.26-.1-.16-.06-.26,0-.3.04-.12.11-.12.3-.08.5-.16-.17-.32-.39-.3-.48.05-.34.08-.69-.01-.9-.05-.1-.12-.56-.13-.78.08.03.19.08.26.11h0Z"/><path class="cls-3" d="m74.46,18.59c-.07.03-.11.08-.12.16,0,.01-.03.03-.03.04-.08.09-.24.25-.19.52.03.14.12.38.23.66.14.35.41,1.07.38,1.26-.08.03-.15.06-.22.08-.17.05-.43.12-.39.45,0,.07.03.14.05.24.04.15.13.46.07.54,0,.01-.03.02-.07.03-.5.04-1.18.94-1.32,1.36-.06.21,0,.31.07.37.06.04.11.06.17.06.19,0,.42-.14.72-.33.19-.12.49-.3.59-.3.11,0,.26.08.38.15.19.11.4.23.59.12.16-.08.21-.28.28-.48.04-.12.1-.32.17-.34.05-.01.15-.02.24-.02.23,0,.52-.02.67-.23.09-.13.1-.3.02-.52-.11-.31-.28-.56-.44-.79-.17-.25-.33-.46-.33-.7,0-.12,0-.21.02-.3.03-.34.03-.56-.37-.97-.19-.19-.38-.41-.55-.59-.4-.45-.48-.54-.63-.48h.01Zm1.19,2c0,.1-.02.21-.02.34,0,.34.19.61.39.9.15.21.3.43.39.69.04.11.04.17.02.19-.04.06-.25.07-.38.07s-.24,0-.34.04c-.24.08-.32.34-.4.58-.03.09-.08.23-.1.26-.05,0-.16-.07-.24-.11-.16-.1-.35-.2-.56-.2s-.49.17-.79.36c-.11.07-.27.17-.39.23.15-.34.69-.99.96-1.01.19-.01.29-.1.34-.18.16-.23.06-.57-.01-.85-.02-.08-.04-.15-.05-.19h0s.08-.04.13-.06c.08-.02.19-.06.31-.11.34-.17.14-.75-.22-1.71-.1-.25-.19-.49-.21-.61-.01-.08,0-.12.09-.2.08.08.17.19.25.28.17.19.37.41.57.61.3.3.29.41.26.68h-.01Z"/><path class="cls-3" d="m72.75,24.76c-.06.1-.07.2-.02.3.06.13.22.45.42.61.03.03.09.11.14.17.11.16.27.39.48.39.05,0,.1-.01.15-.04.3-.15.27-.5.24-.76,0-.04,0-.08-.01-.12-.03-.35-.58-.83-.81-.83-.14,0-.46.1-.59.29h0Zm1.03.57s0,.08.01.12c.01.15.03.34-.03.39-.05-.03-.13-.15-.18-.22-.07-.1-.13-.19-.21-.25-.11-.08-.23-.28-.3-.43.05-.04.19-.1.25-.1.12.05.45.36.46.5Z"/><path class="cls-3" d="m73.73,24.56c.12.19.26.39.43.45.05.01.1.03.17.03.2,0,.45-.07.57-.17.11-.1.1-.21.1-.25,0-.02,0-.06,0-.1-.01-.2-.03-.56-.33-.62-.22-.04-.83.14-.96.35-.06.08-.06.19,0,.26,0,0,.01.02.03.04h0Zm.86-.3s.04.21.04.28v.07c-.09.04-.28.08-.35.06-.03,0-.08-.06-.22-.25.14-.08.41-.16.52-.15h0Z"/><path class="cls-3" d="m70.62,32.36c.07.03.14.05.21.05.06,0,.13-.01.19-.04.28-.12.43-.45.48-.59.1-.26,0-.47-.08-.61-.01-.03-.04-.08-.04-.1,0-.03.04-.12.07-.18.12-.28.19-.47.11-.61-.03-.06-.1-.11-.17-.12-.21-.04-.39.08-.47.16-.1.08-.7.6-.77.99-.07.33.08.9.46,1.07Zm-.1-1c.03-.19.42-.59.65-.78l.02-.02c-.02.06-.06.14-.08.19-.06.13-.09.21-.1.28-.01.11.03.21.07.3.06.13.1.22.06.32-.07.19-.19.34-.28.38-.03.01-.07.01-.11,0-.19-.08-.3-.45-.26-.67h0Z"/><path class="cls-3" d="m66.12,34.01c-.17-.01-.71-.03-.77.29,0,.06-.05.14-.1.22-.1.17-.22.39-.12.61.07.17.3.28.49.32.08.02.16.03.23.03.16,0,.3-.04.39-.13.3-.25.41-.81.41-1.01s-.18-.3-.54-.32Zm-.11,1.05s-.12.05-.22.04c-.16-.01-.3-.09-.32-.12-.01-.06.06-.19.11-.28.06-.1.11-.19.14-.3.1-.05.44-.04.58,0-.03.19-.12.52-.28.65h0Z"/><path class="cls-3" d="m50.69,42.03c-.06-.18-.12-.34-.1-.52.03-.31-.15-.81-.43-.98-.13-.08-.28-.07-.39.01-.13.09-.17.28-.21.5-.03.13-.05.26-.09.34-.02.04-.07.09-.12.14-.14.14-.41.4-.08.83.1.12.15.22.19.3.13.22.22.34.61.34.3,0,.52-.01.65-.16.11-.12.1-.28.09-.39-.02-.14-.07-.29-.12-.43h0Zm-.72-1.18l-.1-.14.11.14h0Zm.47,1.76s-.15.03-.37.03c-.13,0-.23-.06-.3-.17-.05-.08-.12-.2-.23-.34-.13-.17-.1-.2.05-.34.07-.07.15-.14.2-.25.06-.12.09-.28.12-.43.02-.09.04-.22.07-.27.1.05.27.39.25.62-.03.25.06.48.12.68.04.12.08.23.1.34,0,.08,0,.11,0,.11h0Z"/><path class="cls-3" d="m64.42,49.43c.15-.12.2-.32.17-.61-.03-.23-.03-.41-.03-.57-.01-.48-.02-.8-.61-1.23-.33-.24-.47-.6-.61-.92-.13-.32-.26-.63-.55-.73-.07-.03-.14-.05-.23-.08-.4-.13-1.15-.39-1.23-.7-.01-.05-.02-.09-.03-.14-.1-.45-.21-.96-.94-1.27-.81-.33-1.5-.59-1.84-.38-.08.05-.17.14-.19.32-.04.45.34.83.74,1.25.12.12.25.25.36.39.49.57,2.04,2.65,2.16,2.9.12.25,1.08,1.58,1.61,1.67.08.01.19.05.3.08.2.06.41.14.61.14.12,0,.23-.03.33-.1h0Zm-.82-.38c-.12-.04-.24-.08-.35-.1-.31-.06-1.21-1.16-1.34-1.47-.15-.32-1.78-2.48-2.21-2.98-.12-.14-.25-.27-.37-.4-.34-.35-.66-.68-.64-.96,0-.03,0-.03.01-.03.03-.02.07-.03.12-.03.33,0,1.08.31,1.39.43.57.23.63.57.73,1.01,0,.05.02.1.03.14.12.51.9.77,1.47.96.08.03.16.06.22.08.14.05.24.27.34.52.14.34.32.77.72,1.07.45.33.45.51.46.95,0,.17,0,.37.04.61.02.17,0,.26-.03.28-.08.07-.4-.03-.59-.1h0Z"/><path class="cls-3" d="m66.4,50.83c.15.01.28.08.41.14.15.08.33.17.55.17.1,0,.27.01.45.03.32.03.57.04.75.04.31,0,.45-.04.51-.15.05-.08.06-.18.01-.3-.1-.28-.45-.69-.83-.83-.11-.04-.24-.12-.39-.2-.39-.22-.83-.46-1.16-.23-.17.12-.52.17-.74.1-.08-.03-.1-.06-.11-.07-.04-.13-.15-.23-.31-.27-.3-.08-.74.04-.91.19-.03.03-.1.03-.16.05-.15.03-.43.08-.45.39-.02.35.71.7,1.02.78.31.08.68.11,1,.13.12,0,.23.01.34.03h0Zm-2-.93s.1-.03.14-.03c.11-.02.25-.04.35-.14.07-.06.38-.16.57-.11.03,0,.06.02.06.03.03.1.12.23.35.3.33.11.8.04,1.06-.15.15-.1.49.09.76.25.15.08.3.17.43.22.28.11.53.42.6.58-.19.02-.64-.01-.89-.03-.19-.01-.37-.03-.48-.03-.14,0-.25-.06-.39-.13-.15-.08-.32-.17-.54-.19-.11-.01-.23-.02-.35-.03-.3-.02-.65-.04-.93-.12-.34-.1-.68-.33-.75-.43h.02Z"/><path class="cls-3" d="m66.52,46.63c.34.37.34.38.58,1.13.11.34.22.5.39.56.18.06.32-.05.45-.14.08-.06.17-.12.25-.14.14-.03.3.08.5.2.22.14.47.3.77.31h.02c.19,0,.37-.1.57-.28.37-.35.71-1.03.71-1.23,0-.37.11-.65.33-.87.42-.4.61-.72.56-.97-.02-.13-.11-.23-.25-.29-.1-.04-.12-.15-.15-.47-.02-.23-.05-.51-.16-.84-.14-.43.14-.71.29-.85.08-.08.16-.16.12-.28-.02-.07-.08-.11-.14-.13-.05-.03-.17-.17-.25-.26-.18-.2-.39-.43-.59-.54-.3-.17-.54.16-.79.47-.19.24-.43.54-.62.54-.49-.01-.64.45-.74.79-.06.17-.11.35-.19.45-.12.14-.26.19-.42.25-.18.07-.38.14-.5.36-.12.19-.72.38-.95.45-.08.02-.12.03-.16.05-.15.06-.24.17-.28.31-.09.37.23.94.58,1.33l.09.1h-.01Zm-.31-1.34s.02-.05.05-.06c.02,0,.08-.03.14-.04.47-.14.99-.32,1.16-.61.06-.1.16-.14.32-.21.17-.07.39-.15.56-.36.13-.16.2-.37.26-.58.12-.37.19-.54.39-.54.39.01.68-.36.93-.69.1-.13.26-.33.33-.37.14.09.33.29.48.45.09.1.17.18.23.24-.19.19-.49.59-.31,1.16.1.3.12.54.14.77.03.34.06.64.37.76.03.01.03.02.03.02.01.03-.03.23-.45.64-.3.28-.45.66-.45,1.12-.03.21-.57,1.17-.92,1.16-.2,0-.4-.13-.59-.25-.2-.13-.41-.26-.64-.26-.04,0-.09,0-.13.01-.16.03-.29.13-.39.21-.03.03-.09.07-.12.08-.02-.02-.08-.1-.14-.32-.26-.81-.3-.85-.67-1.26l-.09-.1c-.36-.4-.54-.83-.5-1h0Z"/><path class="cls-3" d="m71.48,48.69c.05.08.1.17.14.24.15.28.28.52.5.52.2,0,.31-.21.35-.28.12-.22.15-.5.17-.71,0-.03,0-.05,0-.08.08.09.15.19.21.28.18.25.32.45.53.41.18-.04.24-.25.27-.44.12-.75-.1-1.14-.36-1.41.06-.05.17-.12.25-.16.23-.13.44-.26.48-.45.02-.08,0-.17-.05-.24-.15-.22-.52-.25-.92-.28-.03,0-.07,0-.11,0h0c.32-.06.74-.13,1.03-.41.16-.16.34-.26.48-.34.17-.1.32-.19.32-.35,0-.17-.17-.25-.24-.28-.3-.15-.59,0-.85.12-.16.08-.34.17-.45.13-.48-.14-1.25.32-1.37.63,0,0-.72,2.57-.39,3.1h0Zm.74-2.98c.06-.14.63-.49.92-.41.25.07.5-.05.71-.15.16-.08.33-.16.45-.14,0,0-.01,0-.02.01-.15.09-.36.21-.56.41-.2.2-.54.26-.83.31-.31.06-.6.1-.62.37,0,.07.02.14.06.19.12.14.36.15.7.17.17.01.5.03.61.09-.06.06-.2.14-.29.19-.23.14-.43.25-.45.45-.01.09.02.17.09.24.2.2.41.47.3,1.14,0,.02,0,.04-.01.06-.04-.06-.09-.12-.13-.18-.09-.12-.19-.27-.3-.39-.05-.06-.19-.21-.36-.14-.17.06-.19.25-.22.5-.02.19-.04.41-.13.57-.01.02-.02.04-.03.06-.06-.07-.13-.21-.18-.3-.05-.08-.1-.17-.15-.26-.19-.3.31-2.46.42-2.78h.01Z"/><path class="cls-3" d="m73.47,52.57c.08.06.16.08.25.08.1,0,.19-.03.29-.09.05-.03.1-.07.17-.11.81-.5,1.23-.81,1.23-1.1,0-.19-.1-.36-.27-.45-.24-.13-.57-.08-.9.13-.57.37-.92.82-.93.84l-.02.03v.03c-.07.24.01.5.19.63h0Zm.15-.51c.08-.1.38-.44.81-.72.21-.14.41-.18.53-.12.05.03.07.07.08.12-.04.12-.39.39-1.05.79-.07.04-.13.08-.18.11-.08.06-.12.03-.12.02-.05-.03-.08-.12-.07-.21h0Z"/><path class="cls-3" d="m70.2,50.92c-.14.12-.13.25-.12.31.06.26.45.29,1.03.29h.13c.31,0,.63-.24.67-.5.02-.14-.04-.33-.3-.41-.4-.13-1.17.07-1.42.31Zm1.35.06c-.02.06-.16.18-.31.18h-.08c-.15,0-.46,0-.63-.03.22-.12.73-.25.98-.17.02,0,.03.01.04.02Z"/><path class="cls-3" d="m85.49,50.16c.05-.33-.18-.58-.37-.78-.07-.08-.14-.14-.18-.21-.02-.03-.04-.07-.08-.12-.51-.81-1.17-1.76-1.8-1.89-.16-.03-.38-.09-.61-.15-1.09-.28-1.83-.45-2.11-.19-.04.03-.21.08-.97-.65-.03-.03-.07-.07-.1-.09-.2-.19-.68-.23-1.03-.1-.3.11-.48.34-.52.65-.06.51.33.74.54.85.02.01.04.03.06.03-.05.14-.15.41-.07.62.03.11.11.19.21.24.17.08.32.02.45-.03.17-.07.32-.12.54.02.75.48,1.57,1.2,1.57,1.53,0,.46,0,1.32.56,1.72.13.1.27.23.41.37.27.28.48.49.72.43.12-.03.21-.12.25-.28.1-.36.39-.83.61-.92.06-.02.08-.01.1,0,.14.08.17.15.25.32.08.17.17.39.42.68.4.48,1.17,1.1,1.61,1.1.03,0,.05,0,.08,0,.05-.01.16-.06.21-.2.13-.39-.21-1.57-.5-1.89-.23-.26-.32-.74-.27-1.05Zm.43,2.78c-.22-.04-.83-.42-1.29-.97-.21-.25-.3-.44-.37-.59-.08-.19-.16-.37-.41-.5-.07-.03-.14-.06-.22-.06-.06,0-.13.01-.2.04-.4.17-.72.8-.83,1.16v.02c-.08-.05-.24-.21-.35-.32-.15-.14-.3-.3-.45-.41-.37-.27-.41-.88-.41-1.43,0-.72-1.55-1.73-1.73-1.84-.39-.24-.68-.13-.88-.06-.06.02-.14.06-.17.04,0,0-.01,0-.02-.03-.03-.09.02-.29.09-.43.11-.22-.12-.36-.25-.43-.23-.13-.39-.25-.37-.5.02-.17.11-.28.28-.34.28-.1.59-.03.65.03.02.02.06.05.09.08.37.36,1.06,1.01,1.47.66.16-.14,1.3.15,1.78.28.23.06.46.12.63.16.37.08.89.66,1.56,1.73.04.06.06.1.08.12.06.09.14.17.21.25.15.17.3.32.28.48-.06.4.04.99.36,1.35.22.25.48,1.22.43,1.5h0Z"/><path class="cls-3" d="m72.71,41.22c.02.26.22.42.5.4.31-.02.65.19.93.37.14.09.28.17.39.21.07.03.15.04.23.04.18,0,.37-.06.52-.17.23-.17.35-.41.34-.7v-.2c0-.45-.01-.96-.28-1.2-.1-.1-.24-.13-.39-.12-.29.03-.63.2-.96.37-.29.14-.59.3-.79.32-.28.02-.5.39-.48.68h0Zm1.44-.68c.3-.15.61-.3.83-.33.06,0,.1.01.12.03.15.13.15.61.16.93v.21c0,.21-.1.33-.19.39-.14.1-.31.12-.41.08-.08-.03-.19-.1-.32-.18-.3-.19-.68-.43-1.08-.43h-.07c-.11,0-.11-.03-.12-.05-.02-.12.09-.3.14-.3.28-.02.59-.19.93-.35h.01Z"/><path class="cls-3" d="m71.26,34.44c-.2.31-.6,1.21-.46,1.84.05.22.16.39.32.5.5.32,1.19.72,1.63.79.14.02.32.1.5.18.21.09.36.16.48.16.04,0,.08,0,.11-.02.06-.03.11-.08.13-.14.06-.16.06-.56-.11-.81-.09-.12-.21-.2-.35-.21-.22-.01-.72-.04-.87-.21-.1-.12.01-.63.06-.84.01-.06.03-.12.03-.17,0-.04.02-.1.04-.17.08-.3.17-.7,0-.94-.05-.08-.16-.17-.35-.17-.12,0-.22-.01-.32-.03-.3-.03-.62-.08-.83.24h-.01Zm.79.12c.1.01.22.03.35.03.06,0,.07.02.07.03.08.1-.01.45-.06.63-.01.07-.03.13-.04.19,0,.05-.02.1-.03.17-.1.49-.18.92.02,1.15.23.27.7.32,1.13.34.01,0,.04,0,.07.05.06.09.08.26.08.38-.08-.03-.17-.07-.24-.1-.19-.08-.41-.18-.59-.21-.29-.04-.82-.3-1.48-.73-.08-.06-.14-.14-.17-.27-.1-.47.21-1.25.41-1.56.07-.11.16-.12.47-.08h0Z"/><path class="cls-3" d="m71.77,38.83c-.07-.06-.27-.19-.56.03-.3.23-.59.85-.64,1.26-.02.19,0,.32.08.41.09.11.23.17.39.17h.05c.28-.02.57-.2.72-.46.2-.33.26-1.13-.03-1.39h0Zm-.27,1.21c-.11.19-.3.28-.44.29-.06,0-.1,0-.13-.03-.06-.17.22-.94.5-1.14.07-.05.1-.05.1-.05.1.06.12.68-.03.94h0Z"/><path class="cls-3" d="m36.98,23.62c-.16-.1-.34-.21-.45-.37-.27-.37-.41-.8-.34-1.11.02-.1.41-.2.57-.24.26-.07.48-.12.57-.26.06-.1.06-.21,0-.31-.14-.24-.67-.39-1.03-.35-.19.02-.39.09-.59.17-.24.09-.49.19-.72.18-.56-.02-.87.28-.91.56-.05.34.15.48.28.56.09.06.14.1.17.18.03.08,0,.19-.03.32-.06.23-.13.53.1.86.28.41.27.7.19.8-.02.02-.04.06-.08.09-.23.28-.68.79-.57,1.21.12.5,1.25.68,1.83.68.07,0,.14,0,.19,0,.14-.01.27-.08.35-.2.23-.32.09-.94,0-1.4v-.07c-.05-.14.06-.21.37-.36.19-.09.37-.17.45-.33.17-.3-.14-.49-.35-.62h0Zm-.25.62c-.27.12-.68.32-.58.76v.07c.08.32.22.92.08,1.11-.01.02-.03.04-.09.05-.55.06-1.56-.19-1.61-.4-.06-.25.34-.72.5-.9.03-.04.06-.07.08-.1.23-.28.15-.76-.18-1.23-.14-.19-.1-.36-.05-.56.04-.17.08-.35.01-.54-.08-.2-.21-.29-.32-.35-.11-.08-.13-.08-.12-.2.01-.1.16-.25.49-.25h.05c.3.01.6-.1.86-.2.18-.07.35-.14.5-.15.21-.02.48.06.61.12-.08.03-.19.06-.28.08-.36.1-.77.2-.84.52-.09.41.07.95.4,1.41.16.22.38.35.56.46.08.05.18.11.21.15-.04.05-.18.12-.28.17h0Z"/><path class="cls-3" d="m75.85,44.34c-.1.06-.15.17-.15.29-.01.04-.12.15-.18.21-.16.16-.37.36-.24.59,0,.01.63,1.1,1.04,1.1h.04c.07-.01.13-.06.16-.12.06-.12,0-.23-.06-.37-.11-.25-.1-.31-.05-.35h.03c.43-.27.78-.51.76-.82-.01-.17-.14-.3-.37-.39-.5-.21-.81-.25-.99-.12h0Zm.99.54c0,.08-.2.23-.58.46h-.03c-.21.14-.24.34-.21.51-.14-.18-.31-.4-.41-.59.03-.05.11-.13.17-.18.14-.14.28-.28.29-.46.05,0,.21-.01.63.17.12.05.14.08.14.08h0Z"/><path class="cls-3" d="m87.81,48.65c-.05-.08-.17-.15-.38-.12-.26.03-.39.28-.5.5-.15.3-.24.43-.45.4-.27-.03-.5.04-.63.22-.1.14-.12.33-.03.49.09.17.27.27.49.27.5,0,1.26-.21,1.32-.59,0-.03.04-.13.08-.21.13-.34.28-.72.1-.94Zm-.44.81c-.05.12-.08.21-.09.28-.04.1-.49.3-.96.3-.08,0-.15-.03-.17-.07-.02-.03-.01-.08,0-.11.04-.05.11-.08.2-.08h.08c.49.07.69-.33.83-.6.07-.14.14-.29.22-.3h.05c.03.1-.1.45-.16.58h0Z"/><path class="cls-3" d="m74.01,39.15c.06.18.16.28.28.3h.04c.32,0,.83-.63.87-.85.04-.16-.06-.27-.17-.29,0,0-.81-.19-1.01.06-.14.17-.08.59,0,.77Zm.3-.52c.09-.02.3,0,.48.02-.1.14-.3.35-.42.43-.05-.1-.08-.34-.06-.45Z"/><path class="cls-3" d="m73.53,38.28c-.28-.14-.66-.3-.97-.21-.14.05-.26.14-.34.29-.08.17-.06.37.05.56.14.22.37.36.61.36.34,0,.74-.3.81-.59.04-.17-.03-.32-.17-.4h0Zm-.64.63c-.14,0-.25-.1-.3-.19-.05-.08-.06-.16-.04-.21.03-.06.06-.09.12-.1.03,0,.06-.01.1-.01.15,0,.35.07.58.19-.03.09-.26.31-.46.31h0Z"/><path class="cls-3" d="m72.65,51.52c.36-.03.73-.39.83-.61.05-.14,0-.23-.03-.27-.03-.04-.12-.1-.26-.07-.15.03-.32.03-.47.03-.13,0-.24,0-.32.02-.19.05-.28.3-.25.5.04.24.21.39.46.39h.05,0Zm-.13-.4s-.02-.11,0-.14h.46c-.1.09-.23.18-.35.19-.08,0-.1-.02-.1-.03h0Z"/><path class="cls-3" d="m71.85,52.4c.06,0,.11,0,.17.01h.06c.25,0,.37-.15.39-.3.04-.21-.11-.44-.3-.49h0c-.19-.05-.72-.17-.94.2-.08.13-.08.24-.03.34.1.19.34.2.63.22h.01Zm.24-.41s.03.04.03.06h-.07c-.06,0-.12,0-.18-.01-.1,0-.23-.01-.3-.03.06-.08.24-.09.52-.02h0Z"/><path class="cls-3" d="m167.76,13.26c-4.15-4.15-9-7.42-14.39-9.7-5.58-2.36-11.51-3.56-17.62-3.56s-12.04,1.2-17.62,3.56c-5.39,2.28-10.23,5.54-14.39,9.7-4.15,4.15-7.42,9-9.7,14.39-2.36,5.58-3.56,11.51-3.56,17.62s1.2,12.04,3.56,17.62c2.28,5.39,5.54,10.23,9.7,14.39,4.15,4.15,9,7.42,14.39,9.7,5.58,2.36,11.51,3.56,17.62,3.56s12.04-1.2,17.62-3.56c5.39-2.28,10.23-5.54,14.39-9.7,4.15-4.15,7.42-9,9.7-14.39,2.36-5.58,3.56-11.51,3.56-17.62s-1.2-12.04-3.56-17.62c-2.28-5.39-5.54-10.23-9.7-14.39Zm-15.77-8.41c.04.19.19.4.34.62.17.25.41.59.35.73-.21.55.35,1.61.42,1.72.23.41,1.09,1.25,2.02,1.84.13.08.2.14.23.18-.08.03-.19.05-.27.06-.15.03-.27.06-.36.11-.33.03-2.24-.61-2.43-.78-.1-.1-.34-.18-.81-.33-.57-.19-1.43-.46-1.63-.75-.4-.58-1.83-1.72-2.21-1.87-.34-.14-1.44-.63-1.96-1.01-.59-.43-2.09-.52-2.69-.36-.37.1-.91-.22-1.31-.46-.09-.06-.18-.1-.26-.15-.34-.19-.65-1.5-.61-1.76.01-.01.05-.04.08-.06.16-.12.48-.32.23-.9-.05-.11-.04-.2.01-.29.08-.13.26-.22.4-.28,3.46.45,6.8,1.3,9.96,2.51.12.29.39.94.46,1.23h0Zm-33.18-.76c-.02.07-.04.14-.07.21-.07.23-.16.46-.11.7.04.14.11.2.17.22.15.05.27-.06.4-.17.11-.09.26-.22.35-.19.02,0,.09.08.17.28.19.48.24,1.21.19,1.32-.07.11-.08.25-.1.39-.03.28-.06.58-.43.74-.24.1-.34.01-.57-.28-.16-.21-.34-.44-.65-.48-.44-.06-1.01-.51-1.08-.67.02-.07,0-.14-.06-.2-.2-.21-1.23-.19-1.61-.01-.25.12-.27.29-.27.38.02.23.29.5.72.91.13.12.3.28.41.4-.23.01-.52,0-.83,0-.41-.01-.87-.03-1.28,0-.41.03-.97-.26-1.38-.52,1.92-1.16,3.92-2.17,6.01-3.04h.01Zm8.36,84.87c-1.29-.25-2.56-.57-3.82-.92.12-.14.32-.34.56-.45.31-.14.42-.48.5-.72.01-.04.03-.09.04-.12.3.26.65.59.96,1.04.18.26.59.46.99.65.24.12.74.36.75.47v.05h0Zm5.51.72c.33-.02.65-.14.85-.32.17-.16.19-.31.19-.42.01-.07.19-.25.29-.37.25-.28.52-.57.45-.85-.04-.14-.15-.25-.35-.32-.27-.1-.61-.17-.92-.23-.35-.07-.91-.19-1-.31.05-.03.14-.06.21-.08.28-.1.76-.26.78-.8.01-.22-.01-.43-.04-.62-.07-.55-.07-.72.41-.8.37-.06.76-.28,1.17-.5.67-.36,1.36-.75,2.13-.58.25.06.39.23.52.39.11.13.21.26.37.28.26.04,1.39.04,2.2-.08.23-.03.32-.23.39-.39.09-.21.16-.37.51-.37.26,0,.5.09.76.18.44.16.94.34,1.63.09.56-.2,1.11-.23,1.55-.25.2,0,.39-.02.56-.04.41-.06.43-.37.43-.55,0-.19.02-.28.18-.36.15-.08.3-.18.46-.28.47-.31.68-.42.8-.25.07.09.12.17.17.25.22.36.4.57,1.07.37.41-.12.72-.39.99-.61.24-.2.45-.37.62-.37.27,0,.51-.21.79-.46.34-.3.69-.6,1.05-.51.14.03.21.07.23.09-.01.02-.04.06-.11.1-.23.17-1.36.68-1.78.87h0c-.35.17-.92.51-.92.83,0,.04-.11.15-.2.24-.17.17-.41.41-.6.79-.29.6-.68.9-1.21.9s-.72.15-1.21.47l-.11.08c-.2.13-.35.31-.5.48-.29.33-.52.59-.99.49-.17-.03-.39-.19-.58-.34-.25-.19-.45-.33-.65-.28-.08.02-.15.07-.19.16-.03.06-.18.16-.3.24-.28.19-.76.5-.47.96.41.65,1.94.56,2.39.51.15-.01.27-.03.37-.04.13-.01.28-.03.34-.03,0,.03,0,.08-.02.19-.15.75.44,1.01.7,1.13.22.1.56-.06,1.14-.35.28-.14.8-.41.94-.37.09.08.11.23.11.37-3.97,1.16-8.17,1.79-12.52,1.79-1.03,0-2.06-.03-3.08-.1v-.04Zm15.96-1.79c-.01-.19-.08-.39-.24-.54-.24-.21-.66,0-1.33.33-.27.14-.71.36-.83.35-.37-.17-.56-.33-.48-.72.04-.22.05-.4-.06-.52-.13-.14-.33-.12-.66-.08-.1.01-.23.03-.36.04-.83.08-1.83,0-2.05-.35-.08-.12,0-.21.37-.45.16-.11.32-.21.4-.34.08.03.22.14.32.21.22.16.47.34.72.4.68.14,1.03-.25,1.34-.61.14-.16.27-.31.43-.42l.11-.08c.46-.31.61-.41,1.01-.41.46,0,1.1-.19,1.53-1.1.16-.32.36-.53.52-.69.17-.16.3-.3.3-.49.03-.1.36-.34.71-.51.18-.08,1.54-.68,1.85-.91.2-.15.29-.31.25-.47-.05-.26-.39-.35-.5-.37-.55-.13-1.01.27-1.38.59-.21.18-.42.37-.54.37-.31,0-.57.22-.86.46-.25.21-.53.45-.86.54-.45.13-.48.07-.65-.21-.05-.08-.11-.18-.19-.28-.34-.46-.88-.11-1.29.17-.14.1-.28.19-.41.25-.35.18-.37.47-.38.66,0,.19-.01.19-.12.21-.15.02-.32.03-.52.03-.47.02-1.05.05-1.65.27-.57.21-.96.06-1.38-.09-.28-.1-.56-.2-.88-.2-.59,0-.75.37-.84.59-.04.1-.08.16-.1.17-.83.12-1.9.1-2.09.08-.03-.01-.1-.1-.15-.16-.15-.18-.36-.43-.72-.51-.9-.2-1.69.23-2.38.61-.38.21-.74.41-1.05.46-.85.14-.77.73-.71,1.21.02.18.05.37.04.55-.01.27-.22.36-.54.47-.22.08-.55.19-.45.51.1.34.63.45,1.29.59.3.06.62.12.88.21.08.03.11.06.11.06.02.09-.24.38-.36.52-.23.25-.41.45-.39.65,0,.03-.02.08-.07.12-.17.15-.57.28-.92.21-.39-.07-.86.1-1.18.26-1.23-.12-2.45-.3-3.65-.53,0-.02-.01-.05,0-.08.04-.36-.42-.59-.95-.85-.34-.17-.73-.36-.85-.54-.35-.51-.74-.86-1.06-1.14-.1-.09-.2-.12-.3-.1-.17.05-.23.21-.29.41-.06.19-.14.43-.31.5-.39.18-.66.5-.79.67-18.34-5.51-31.75-22.54-31.75-42.66,0-16.01,8.5-30.08,21.22-37.93.4.27,1.15.71,1.75.67.39-.03.84-.01,1.24,0,.22,0,.43.01.62.01.15,0,.28,0,.4-.01.17-.02.23-.12.25-.18.07-.21-.14-.42-.59-.84-.2-.19-.57-.52-.61-.66.14-.13.92-.17,1.2-.1,0,.03.02.08.04.12.17.32.86.8,1.36.86.16.02.28.17.41.34.2.26.47.61,1,.39.57-.25.62-.72.65-1.04,0-.1.02-.2.04-.24.16-.26.03-1.08-.12-1.54-.11-.33-.25-.52-.41-.59-.28-.12-.54.09-.7.23.01-.1.05-.22.1-.34.05-.16.11-.32.12-.49,5.12-2.05,10.7-3.19,16.54-3.19,1.77,0,3.51.1,5.23.3-.05.04-.09.09-.12.14-.12.19-.14.41-.05.64.12.3.05.36-.1.45-.08.05-.16.11-.21.2-.15.3.23,1.94.76,2.24.08.04.16.09.25.14.47.29,1.07.64,1.59.5.51-.14,1.9-.04,2.38.3.55.4,1.67.9,2.04,1.05.3.12,1.68,1.21,2.04,1.74.27.39,1.12.67,1.81.89.27.09.61.19.67.25.19.19,1.28.54,1.4.59.74.24,1.1.3,1.28.3.13,0,.17-.03.2-.06.03-.02.15-.04.23-.06.26-.05.55-.1.59-.34.04-.23-.19-.41-.43-.56-.95-.61-1.73-1.4-1.9-1.71-.27-.5-.5-1.16-.39-1.42.12-.32-.14-.7-.39-1.07-.13-.19-.26-.38-.29-.5-.05-.23-.21-.63-.35-.96,16.54,6.5,28.28,22.63,28.28,41.46,0,20.07-13.35,37.09-31.65,42.63h0Z"/><path class="cls-3" d="m165.06,40.66c-.08-.28-.54-.63-1.19-1.1-.21-.15-.47-.34-.52-.4-.19-.25-1.01-.48-1.41-.44-.19.01-.31.08-.37.19-.09.17-.68.34-.96.28-.15-.03-.52-.35-.77-.56-.21-.18-.39-.34-.52-.4-.1-.06-.2-.06-.3-.02-.21.08-.38.34-.57.85-.05-.06-.12-.13-.17-.19-.13-.15-.27-.3-.41-.38-.3-.15-1.21.01-1.62.25-.19.1-.29.23-.3.37,0,.04,0,.1,0,.17-.05.9-.13,1.19-.19,1.26-.06,0-.13-.05-.25-.11-.22-.13-.57-.32-1.17-.41-.62-.08-.95.03-1.18.1-.15.05-.22.07-.3.05-.11-.02-.36-.26-.52-.61-.11-.24-.14-.46-.08-.59.3-.58.19-1.3-.28-1.79-.47-.5-1.34-.78-1.83-.72-.39.05-1.02.03-1.22,0-.06-.17-.02-.68.09-.76.27-.19.68-1.15.75-1.58.03-.15.01-.25-.04-.33-.17-.23-.94-.25-1.21-.24-.36.01-.83.1-1,.4-.12.2-.15.43-.18.66-.06.41-.11.65-.41.7-.68.12-1.84,0-2.19-.47-.41-.56-1.21-2.65-1.13-2.98.03-.15.04-.37.05-.63,0-.41.02-1.1.23-1.2.21-.1.41-.15.61-.19.21-.05.42-.1.63-.2.12-.06.69.08,1.03.17.68.17,1.1.27,1.33.12.25-.17.28-.52.32-.84.01-.14.04-.37.08-.43.12-.02.54.21.77.34.34.19.56.3.72.32.17.01.33-.04.48-.1.19-.07.34-.12.49-.06.1.06.27.49.4.8.31.75.63,1.54,1.15,1.54.21,0,.31.06.36.08.05.03.14.08.24.02.1-.06.12-.15.14-.32.01-.08.03-.17.05-.3.12-.67-.15-.88-.39-1.06-.1-.08-.2-.16-.28-.28-.1-.17-.23-.35-.36-.53-.18-.25-.37-.54-.41-.67-.03-.16.34-.86.67-1.19.07-.07.17-.16.28-.25.45-.39.96-.83.82-1.22-.08-.23-.28-.7-.49-1.05.19.03.36.03.48-.08.05-.06.12-.16.08-.33-.05-.26.01-.48.08-.7.05-.16.1-.32.1-.48v-.12c0-.3-.01-.48.32-.62.12-.06.29-.09.46-.12.3-.06.58-.11.65-.34.07-.21-.09-.41-.21-.54-.08-.09-.28-.31-.33-.4.01-.01.04-.03.06-.05.03-.03.08-.07.12-.12.21-.21.68-.37,1.04-.34.34.02,1.4-.33,1.53-.75.05-.15-.01-.3-.17-.4-.29-.18-.56-.26-.83-.32-.2-.06-.4-.1-.63-.21-.22-.1-.33-.32-.43-.54-.11-.23-.24-.5-.53-.54-.28-.03-.58.14-.87.32-.13.08-.26.16-.37.21.08-.21.32-.6.41-.74.03-.04.05-.08.07-.1.07-.1.19-.12.41-.14.17-.01.35-.03.54-.11,1.08-.48,1.53-1.05,1.34-1.7-.21-.68-.69-.74-1.04-.77-.14-.01-.27-.03-.36-.08-.14-.08-.22-.14-.29-.23-.1-.11-.23-.24-.51-.3-.08-.02-.18-.03-.28-.05-.5-.08-.89-.17-.89-.51,0-.56-.51-.85-.92-1.08-.14-.08-.28-.16-.39-.24-.07-.06-.76-.61-1.07-.41-.05.03-.16.12-.11.32.01.06.04.14.06.25.05.17.15.55.18.78-.1-.09-.23-.22-.35-.35-.31-.33-.67-.7-1.03-.77-.17-.03-.41-.1-.68-.18-.72-.21-1.25-.36-1.54-.28-.11.03-.24-.03-.36-.1-.14-.07-.28-.14-.41-.06-.14.08-.14.25-.15.3-.03.49.46,1.43.84,1.49.06.08.08.39.08.5,0,.07,0,.12.01.16.02.17.15.23.24.28.1.05.24.12.41.37.3.46.3.86.19,1.07-.12.24.12.5.39.8.21.22.52.56.45.71-.02.04-.04.06-.08.07-.21.06-.67-.16-1.2-.54-.12-.09-.25-.23-.39-.37-.32-.32-.7-.73-1.29-.83-.81-.13-2.65-.54-2.84-.63-.12-.06-.58-.58-.8-.83-.13-.15-.24-.28-.3-.34-.1-.1-.1-.28.19-.88.1-.2.26-.28.41-.37.16-.08.32-.17.37-.36.05-.15,0-.32-.12-.57-.05-.08-.18-.32-.2-.41.03-.01.08-.03.13-.06.08-.03.19-.07.32-.13.14-.08.38-.09.58-.1.33-.03.63-.05.75-.28.1-.23-.07-.49-.24-.7-.41-.52-1.03-.85-1.45-.76-.21.04-.37.19-.42.41,0,.03-.02.06-.03.08-.04-.03-.1-.08-.15-.11-.14-.11-.31-.24-.52-.3-.13-.03-.34-.32-.5-.53-.25-.34-.46-.63-.73-.63-.09,0-.21.03-.32.19-.38.53-.54.79-.18,1.38v.03c.1.14.25.39.26.49-.04,0-.15,0-.37-.05-.3-.08-.63-.22-.96-.36-.7-.3-1.32-.56-1.52-.11-.08.18-.1.39-.12.58-.01.12-.03.35-.08.39,0,0-.03,0-.11-.02-.24-.1-.61-.37-.94-.61-.52-.39-.7-.52-.88-.45-.01,0-.03.01-.04.02-.08-.03-.21-.11-.34-.18-.6-.33-1.61-.88-2.42-.63-.71.22-1.12.07-1.55-.08-.21-.08-.41-.15-.65-.19-.72-.12-2.68-.79-3.27-1.23-.08-.06-.16-.11-.23-.17-.57-.41-.92-.67-1.2-.57-.08.03-.18.09-.23.25-.06.17-.08.23-.12.25-.09.04-.34.02-.61,0-.19-.02-.37-.05-.55-.08-.44-.07-.79-.12-1,.03-.09.06-.14.16-.15.28-.03.22.1.52.23.83.07.16.19.43.2.56-.04-.03-.09-.08-.13-.11-.24-.21-.64-.55-1.22-.38-.79.24-.8.76-.81,1.04,0,.06,0,.1,0,.14-.03.12.03.25.07.36.02.05.06.14.05.17,0,0-.05.06-.35.07-.8.02-1.41.08-1.53.61-.04.2.05.39.15.56.15.28.16.35.04.45-.14.11-.25.17-.32.21-.1.06-.19.1-.2.23,0,.13.09.2.21.28.23.17.47.34.88.42-.18.13-.48.31-.85.5-.69.34-1.09.43-1.19.41-.4-.1-.67-.03-.72.17-.08.28.34.43.48.48.64.23,2.19.3,2.8-.29.45-.43,1.52-.68,2.22-.85.1-.02.18-.04.26-.06.31-.08.35-.03.41.01.07.07.18.17.43.17s.5-.03.73-.07c.19-.03.38-.06.52-.06.22,0,.77.31,1.36.78.34.27.85.52,1.22.7.12.06.23.11.31.15.07.05.15.38.19.6.12.52.25,1.11.68,1.31.19.09.3.39.43.7.19.48.41,1.07,1.03,1.23.57.14.9.72.88,1.04,0,.14-.08.15-.12.15-.79.1-.99,1.81-.97,2.09,0,.08,0,.28,0,.54.02,2.02.08,2.69.28,2.86.08.07.3.52.46.85.42.86.65,1.27.86,1.37.26.12,1.25,1.23,1.48,1.54.05.07.13.16.23.28.28.31.86.96.79,1.25-.1.5.39.94.85,1.36.1.08.19.17.29.26.19.18.34.43.48.68.23.4.44.78.85.8.07,0,.16,0,.24.01.42.03.79.06.89-.18.09-.21-.1-.42-.3-.6-.31-.28-.54-.62-.74-.93-.26-.39-.48-.72-.8-.79-.28-.06-.48-.38-.66-.69-.06-.1-.12-.2-.19-.3-.23-.34-.35-.92-.27-1.02.27,0,.93.75,1.17,1.04.04.04.06.08.1.11.12.14.28.23.45.33.37.21.71.41.74.99.03.74.45.81.76.87.19.03.35.06.47.21.43.51,1.01,1.08,1.26,1.28.12.09.03.38-.04.63-.01.06-.04.11-.05.17-.14.53.87,1.32,1.56,1.53.64.19,1.59.65,1.6.65h.03s.03.01.03.01c.05.01.25.09.42.15.44.17,1.04.39,1.43.44.5.06.82-.15,1.06-.31.06-.04.12-.08.18-.12.12.03.46.32.71.52.52.43,1.05.88,1.47.89h.39c.5,0,.98,0,1.56.32.36.19.5.58.63.92.12.33.24.65.55.68.17.02.7.34,1.12.6.76.45,1.23.74,1.52.74.23,0,.41-.14.58-.26.29-.21.41-.3.66.03.59.81.89,1.51.8,1.91-.04.14-.11.24-.25.32-.72.39-1.72,1.46-1.77,2.05-.02.21.07.32.14.39.08.1-.06.74-.15,1.08-.19.79-.38,1.61.07,1.9.59.38,2.38,3.14,2.43,3.73.06.75.43,1.98,1.2,2.07.41.05,1.13.31,1.45.74.13.18.18.37.14.57-.16.83-.45,1.85-.71,2.74l-.07.25c-.1.32-.31.75-.54,1.21-.43.83-.87,1.69-.74,2.31.14.7-.79,2.72-1.19,3.58-.06.12-.11.23-.15.32-.21.47-.36,1.03-.48,1.54-.08.34-.16.63-.24.81h0c-.19.48-.45,1.12-.99,1.38-.19.09-.39.12-.57.16-.25.04-.49.08-.62.27-.08.12-.11.28-.07.48.05.25-.12.68-.29,1.09-.23.57-.45,1.1-.23,1.46.08.13-.07.42-.18.63-.13.25-.25.47-.11.64.07.08.17.12.29.12.11,0,.25-.03.4-.07h.04c1.27-.34,2.11-.56,1.94-1.25-.04-.14.37-.39.64-.55.41-.25.83-.5.89-.85.03-.15.06-.3.08-.43.07-.36.12-.59.08-.75.1-.11.47-.34.72-.5.09-.06.19-.12.28-.17.56-.36,1.31-1.13,1.16-1.67.07-.01.22-.01.32-.01.27,0,.57,0,.81-.13.41-.21.46-.46.5-.66.01-.07.03-.12.05-.19.08-.06.41-.04.6-.03.24.01.46.02.62-.03.04-.01.11-.03.19-.06.61-.16,1.28-.35,1.47-.71.06-.12.08-.24.03-.36-.04-.13-.1-.28-.16-.44-.09-.24-.24-.65-.28-.85.11.04.27.13.38.19.32.17.54.28.7.26.19-.02,1.91-.43,1.84-1.23,0-.08.02-.11.04-.14.15-.14.61-.14.81-.11h.07l.06-.03s1.07-.77,1.43-1.41c.15-.28.21-.56.27-.83.07-.37.14-.68.42-.89.21-.16.51-.3.83-.44.51-.23,1.08-.5,1.58-.95l.18-.17c.74-.68,1.67-1.52,2.17-2.4.61-1.07,1.01-2.2,1.06-2.94,0-.12.35-.5.57-.75.3-.35.62-.71.77-1.03.09-.19.31-.43.54-.69.52-.58,1.1-1.23.72-1.76-.19-.26-.31-.7-.42-1.08-.16-.55-.28-.99-.59-1.08-.12-.03-.42-.28-.68-.5-.52-.43-1.12-.92-1.54-.92-.31,0-.88-.29-1.29-.5-.37-.19-.57-.29-.7-.3-.1-.02-.49-.12-.9-.17-.16-.02-.27-.14-.39-.28-.14-.15-.31-.34-.56-.27-.06.02-.15-.06-.19-.13-.03-.05-.03-.1-.01-.1.03-.03.1-.06.16-.08.17-.08.41-.18.49-.42.06-.18.01-.39-.14-.65-.08-.12-.15-.26-.23-.41-.39-.73-.83-1.55-1.54-1.6-.74-.05-2.05-.32-2.4-.48-.39-.17-.59-.27-.66-.54h0Zm4.29,2.8c.08.15.16.3.23.43.09.15.12.28.1.35-.03.08-.17.14-.28.19-.09.04-.17.08-.24.13-.16.12-.19.34-.08.56s.36.39.62.32c.04-.01.13.09.2.17.14.15.32.36.62.39.43.05.85.16.86.16h.05c.08,0,.35.14.57.25.47.24,1.06.54,1.45.54.3,0,.88.48,1.31.83.38.31.63.51.81.56.12.03.26.54.35.83.12.41.25.88.47,1.19.21.29-.3.85-.7,1.31-.25.28-.49.54-.6.77-.13.28-.44.63-.72.94-.39.45-.64.74-.65.97-.05.68-.43,1.75-1.01,2.78-.47.83-1.34,1.61-2.1,2.3l-.18.17c-.46.41-1,.66-1.48.89-.34.16-.65.3-.9.48-.39.29-.48.71-.57,1.11-.05.25-.1.5-.23.72-.27.5-1.05,1.1-1.27,1.25-.21-.02-.76-.04-1.03.22-.12.11-.17.26-.16.43.03.39-1.19.81-1.51.84-.08,0-.34-.14-.5-.22-.39-.21-.62-.32-.79-.22-.26.14-.12.54.18,1.34.06.16.12.3.16.43,0,.03,0,.04,0,.07-.13.25-.94.45-1.24.53-.09.02-.16.04-.21.06-.1.03-.31.02-.5,0-.42-.02-.82-.04-.95.23-.04.1-.06.19-.08.27-.03.17-.05.28-.31.41-.16.08-.42.09-.65.09-.28,0-.52,0-.63.16-.04.06-.08.16-.04.31.07.26-.43.91-1.01,1.27-.09.06-.18.11-.27.17-.65.41-1.01.63-.88.9.02.07-.03.36-.08.59-.03.13-.05.28-.08.43-.04.19-.41.42-.72.61-.44.27-.9.55-.81.94.08.32-.56.51-1.68.81h-.04c-.13.04-.21.06-.27.06.03-.06.08-.15.11-.22.16-.3.36-.67.17-.99-.12-.2.08-.7.25-1.13.19-.48.38-.94.31-1.3-.02-.1-.01-.17,0-.21.04-.06.21-.09.38-.12.19-.04.43-.08.67-.19.68-.32.96-1.04,1.17-1.56h0c.09-.23.16-.52.25-.88.12-.49.26-1.03.46-1.47.04-.09.09-.19.14-.32.48-1.05,1.39-2.99,1.22-3.81-.1-.48.33-1.33.71-2.07.24-.47.46-.91.57-1.27l.07-.25c.26-.91.57-1.94.72-2.78.06-.3-.01-.59-.21-.85-.41-.55-1.26-.84-1.7-.89-.48-.06-.83-1.06-.88-1.73-.06-.75-1.98-3.62-2.6-4.01-.23-.14-.03-.96.09-1.51.16-.68.29-1.23.03-1.44-.01-.01-.01-.05-.01-.07.04-.43.92-1.4,1.58-1.76.23-.12.37-.31.43-.56.14-.65-.39-1.56-.86-2.2-.2-.28-.4-.37-.58-.37-.23,0-.43.14-.58.25-.13.1-.26.19-.37.19-.2,0-.85-.39-1.32-.68-.63-.39-1.03-.62-1.27-.65-.09,0-.17-.23-.25-.44-.13-.36-.32-.85-.79-1.12-.66-.36-1.21-.36-1.73-.37h-.37c-.3-.01-.85-.47-1.25-.81-.57-.48-.85-.7-1.08-.58-.08.04-.16.1-.24.14-.22.14-.45.3-.81.25-.34-.05-.95-.27-1.35-.42-.25-.1-.39-.14-.47-.17-.15-.07-1.01-.48-1.63-.67-.69-.21-1.36-.9-1.3-1.08.01-.06.03-.1.04-.16.1-.34.22-.77-.08-1.02-.23-.19-.79-.74-1.21-1.23-.21-.25-.47-.29-.68-.33-.29-.05-.43-.08-.46-.52-.04-.79-.54-1.07-.92-1.29-.15-.08-.28-.17-.36-.25-.03-.03-.06-.07-.09-.1-.53-.61-1.04-1.16-1.45-1.16-.15,0-.26.07-.32.19-.19.36.1,1.1.3,1.4.06.08.11.18.17.28.21.36.46.76.9.86.18.03.36.32.57.63.21.32.46.69.8,1,.08.07.13.12.16.17-.12,0-.34,0-.47-.02-.09,0-.17-.01-.26-.02-.21,0-.36-.29-.55-.61-.14-.25-.31-.54-.54-.76-.1-.09-.2-.18-.3-.27-.39-.35-.8-.72-.74-1.02.09-.43-.37-.99-.88-1.57-.1-.1-.17-.19-.21-.25-.15-.21-1.23-1.48-1.62-1.66-.14-.08-.48-.79-.69-1.21-.26-.52-.41-.83-.54-.95-.14-.24-.16-2.01-.16-2.6,0-.28,0-.48,0-.56-.03-.37.25-1.65.65-1.7.25-.03.42-.21.44-.49.04-.52-.43-1.23-1.15-1.42-.44-.12-.62-.57-.79-1.01-.15-.39-.29-.75-.61-.9-.26-.12-.38-.64-.48-1.05-.1-.41-.17-.72-.37-.83-.08-.05-.19-.1-.32-.17-.36-.17-.84-.41-1.16-.66-.41-.32-1.16-.85-1.59-.85-.17,0-.37.03-.58.06-.23.03-.46.07-.68.07-.11,0-.14-.02-.19-.07-.16-.14-.32-.2-.74-.1-.08.02-.17.04-.25.06-.74.18-1.87.45-2.39.94-.43.41-1.56.41-2.21.27.66-.06,2.15-.88,2.41-1.19.1-.12.09-.21.06-.28-.02-.05-.08-.13-.23-.14-.43-.02-.66-.17-.91-.34.08-.05.16-.11.27-.19.37-.3.17-.68.05-.9-.06-.11-.12-.24-.11-.31.04-.19.25-.3,1.19-.32.35,0,.54-.08.65-.23.11-.17.03-.37-.03-.51-.02-.05-.05-.12-.05-.14.01-.06.01-.13.01-.2,0-.26.01-.54.55-.7.39-.12.65.1.88.3.17.14.4.34.62.15.23-.21.07-.61-.11-1.03-.1-.23-.21-.52-.2-.64,0-.02,0-.03.01-.03.08-.06.44,0,.72.03.17.03.37.06.57.08.77.08.94.04,1.1-.5h0c.14-.01.61.33.86.52.08.06.16.12.23.17.64.46,2.67,1.16,3.43,1.29.21.03.39.1.59.17.47.17.96.35,1.78.09.66-.21,1.58.3,2.14.61.37.2.52.28.65.22,0,0,.01,0,.02-.01.12.06.35.24.53.37.35.25.73.54,1.02.65.17.07.32.07.43,0,.2-.12.22-.39.25-.66.01-.17.04-.34.09-.47.05-.12.74.17,1.04.3.34.14.69.3,1.02.37.29.08.61.12.76-.08.16-.22-.02-.54-.24-.9v-.03c-.25-.39-.21-.48.15-.99.02-.03.04-.03.03-.03.09,0,.32.31.43.48.23.31.44.6.7.66.14.03.27.14.39.23.17.12.32.25.5.19.16-.06.22-.23.26-.35.02-.09.07-.13.14-.14.25-.05.74.19,1.08.63.16.21.18.3.19.32-.05.04-.29.06-.43.07-.24.02-.52.04-.72.14-.11.06-.2.09-.28.12-.16.06-.3.11-.35.26-.06.17.03.36.23.73.11.19.1.27.1.28-.01.04-.1.09-.19.14-.18.1-.43.23-.57.53-.26.54-.43.97-.11,1.3.06.06.17.18.29.32.43.49.75.85.93.92.25.11,2.18.53,2.93.65.46.08.78.4,1.08.72.15.15.29.3.44.41.46.33,1.09.7,1.5.59.15-.03.26-.13.32-.27.18-.37-.19-.76-.5-1.11-.12-.13-.3-.32-.32-.41.19-.39.11-.92-.21-1.42-.21-.33-.43-.43-.55-.5-.01,0-.03-.01-.04-.02,0-.03,0-.07,0-.1-.02-.32-.05-.8-.39-.84-.14-.06-.52-.7-.53-1.07.01,0,.03.01.04.02.16.08.37.19.61.12.21-.06.9.14,1.35.28.27.08.53.16.72.19.25.05.58.39.84.66.21.22.39.41.57.5.17.09.28.02.31,0,.19-.15.12-.5-.09-1.27-.01-.04-.02-.09-.03-.12.13.05.34.17.57.34.12.1.27.19.43.28.36.2.73.41.73.76,0,.68.74.8,1.19.87.1.01.19.03.25.05.18.04.23.1.33.2.08.09.19.2.39.3.15.08.32.1.48.11.33.03.6.07.74.52.14.45-.23.87-1.13,1.26-.13.06-.28.07-.43.08-.25.02-.52.04-.69.31-.02.03-.04.06-.06.1-.41.66-.59,1.01-.46,1.22.03.04.11.14.28.12.2-.03.41-.16.63-.3.22-.14.47-.29.63-.28.09.01.15.13.25.33.12.25.27.56.61.71.25.12.47.17.68.23.26.07.48.12.72.28-.11.17-.88.5-1.15.48-.41-.03-1,.12-1.32.45-.03.03-.08.07-.1.1-.09.08-.18.16-.19.3,0,.17.1.31.43.68.09.1.12.15.13.18-.06.04-.25.08-.37.1-.17.03-.37.08-.53.14-.54.25-.54.64-.53.96v.12c0,.11-.03.23-.07.37-.07.23-.16.52-.09.86-.09,0-.29-.04-.36-.06-.19-.05-.33-.08-.41.06-.03.05-.06.15.06.28.21.21.51.86.65,1.24.06.15-.52.65-.72.82-.12.1-.22.19-.3.27-.27.27-.88,1.15-.76,1.54.06.19.24.46.46.78.12.17.25.35.34.52.11.18.24.28.37.37.21.16.34.25.26.71-.02.12-.04.21-.05.28-.09-.03-.22-.06-.39-.06-.28,0-.61-.82-.81-1.31-.25-.6-.39-.91-.6-1-.28-.11-.54-.02-.75.06-.12.04-.24.09-.34.08-.1,0-.36-.15-.57-.27-.52-.29-.85-.45-1.09-.36-.25.1-.28.42-.3.73-.02.21-.04.5-.14.56-.12.07-.7-.08-1.04-.17-.65-.17-1.05-.26-1.29-.14-.16.08-.34.12-.53.17-.21.05-.45.1-.7.22-.41.2-.42.9-.43,1.52,0,.23,0,.44-.03.55-.12.5.76,2.69,1.19,3.28.48.64,1.8.74,2.54.61.57-.1.65-.61.7-1.01.03-.21.06-.4.14-.53.04-.07.17-.13.34-.17.45-.1,1.07-.03,1.24.04-.01.28-.44,1.27-.61,1.39-.28.2-.3.79-.25,1.07.03.19.12.31.23.34.21.06.99.06,1.4.01.34-.04,1.11.18,1.52.61.41.44.41,1.01.22,1.36-.12.23-.1.56.07.91.17.35.48.74.77.81.19.04.33,0,.49-.06.22-.07.49-.16,1.03-.09.54.07.83.23,1.04.36.17.1.3.18.48.16.35-.03.45-.59.5-1.61,0-.06,0-.12,0-.16.01-.03.1-.1.34-.19.43-.15.94-.19,1.06-.14.08.04.21.18.3.29.19.21.35.39.54.36.05-.01.16-.06.21-.21.22-.61.36-.7.38-.72.09.05.28.21.45.36.4.34.7.59.92.64.37.08,1.14-.09,1.35-.45.17-.1,1.06.14,1.18.28.08.1.26.23.59.47.32.23,1.01.72,1.05.9.12.46.47.61.87.79.43.19,1.77.45,2.53.51.51.03.92.8,1.25,1.41l-.05.04Z"/><path class="cls-3" d="m153.89,74.94c-.39-.2-1.12.14-1.48.38-.1.07-.15.18-.12.3.08.3.72.52,1.1.54h.03c.35,0,.59-.29.66-.59.07-.28,0-.53-.19-.63Zm-.19.61c-.05.12-.16.25-.3.24-.26-.01-.57-.14-.7-.23.41-.24.87-.38,1.03-.3.02.02.04.14-.02.28h0Z"/><path class="cls-3" d="m108.05,76.43c-.07-.47-.21-.77-.34-1.06-.06-.13-.12-.28-.18-.43-.22-.6-.57-.9-.81-.99-.04-.01-.07-.03-.1-.05-.19-.12-.32-.1-.58.08-.26.18-.12.53.05.94.1.25.21.53.24.78.02.2,0,.36-.02.52-.04.3-.09.62.24,1.08.06.09.12.17.17.25.26.39.5.74.9.74.1,0,.21-.02.34-.07.56-.22.39-.8.25-1.27-.05-.17-.1-.35-.13-.52h-.01Zm-.25,1.45c-.32.13-.44-.01-.79-.53-.06-.08-.11-.17-.17-.26-.24-.34-.21-.54-.18-.82.03-.17.06-.37.02-.61-.03-.3-.16-.6-.27-.88-.07-.17-.17-.43-.17-.52.08-.06.12-.07.14-.08,0,0,.02.01.03.01.04.03.1.06.18.09.17.06.43.32.59.76.06.17.13.32.19.46.12.28.25.54.32.97.04.19.09.39.15.56.17.55.18.74-.04.83h0Z"/><path class="cls-3" d="m106.73,73.58c.28,0,.57-.03.72-.22.1-.12.12-.3.05-.53-.03-.1-.05-.22-.08-.35-.08-.43-.17-.88-.48-1-.12-.05-.32-.08-.54-.11-.32-.05-.81-.12-.94-.25-.28-.28-1.2-.9-1.68-.9-.18,0-.3.06-.34.17-.08.21.12.4.43.7.14.13.28.27.39.39.18.21.5.37.8.52.26.12.63.31.61.43-.06.23,0,.49.17.71.21.28.55.44.89.44h0Zm-1.51-1.9c-.27-.13-.55-.27-.68-.43-.12-.14-.28-.3-.42-.43-.07-.06-.15-.14-.22-.22.38.1,1.07.55,1.3.78.19.19.6.27,1.14.36.2.04.39.06.48.1.12.05.21.47.25.72.03.14.05.26.08.37.04.15.02.2.01.21-.02.02-.1.07-.43.07-.22,0-.46-.12-.6-.3-.06-.07-.15-.23-.11-.4.1-.4-.36-.63-.8-.84h0Z"/><path class="cls-3" d="m157.41,33.86c-.32-.07-.55-.12-.7.02-.04.04-.1.13-.07.28.03.18.1.34.15.48-.21,0-.47,0-.61.17-.06.06-.11.17-.08.34.06.3.48.34.79.34.06,0,.19.08.29.15.16.1.35.23.56.23.09,0,.18-.02.27-.08.17-.11.26-.26.33-.37.1-.15.13-.19.25-.19.31,0,.7-.05.79-.28.03-.07.06-.21-.09-.36-.23-.25-.7-.65-1.3-.63-.17,0-.4-.04-.59-.08h0Zm1.61.94c-.07.03-.21.05-.41.05-.33,0-.45.2-.56.37-.06.1-.12.19-.23.26-.09.06-.23-.02-.43-.15-.16-.1-.32-.21-.49-.21-.3,0-.4-.04-.43-.06.02-.02.1-.06.43-.04.09,0,.14,0,.18,0,.06-.01.1-.06.12-.1.05-.1,0-.2-.06-.39-.04-.1-.09-.23-.12-.35.08,0,.21.03.31.06.21.05.46.1.68.09.45-.01.84.32,1,.49h0Z"/><path class="cls-3" d="m155.9,34.71c.19-.2.09-.54.06-.65-.02-.08-.09-.3-1.63-.98-.61-.27-2.06-.88-2.39-.72-.11.06-.3.11-.49.17-.51.15-.88.27-.88.53,0,.03-.06.12-.08.17-.07.12-.15.26-.1.41.02.06.08.13.19.17.21.06.48-.08.86-.32.14-.08.3-.18.37-.2.09-.03.13,0,.25.08.06.04.12.08.21.12.11.04.26.05.43.06.21,0,.47.01.62.1l.07.04c.27.16.41.23.63.42.07.06.14.12.21.19.19.19.39.38.66.41.04,0,.12.03.19.05.15.04.32.09.48.09.13,0,.25-.03.34-.12Zm-.96-.37c-.15-.02-.3-.16-.46-.31-.08-.07-.15-.14-.23-.21-.25-.2-.4-.29-.68-.45l-.07-.04c-.23-.14-.54-.14-.79-.16-.12,0-.25,0-.3-.03-.05-.02-.09-.05-.15-.08-.1-.06-.22-.14-.38-.14-.05,0-.1,0-.16.02-.12.03-.28.13-.46.24-.12.08-.33.2-.47.25,0,0,0-.01.01-.02.05-.09.11-.2.12-.31.09-.07.42-.17.62-.23.2-.06.39-.12.52-.18.39-.06,3.27,1.16,3.54,1.49.05.19.03.26.03.27-.05.06-.36-.03-.46-.06-.09-.03-.17-.05-.24-.06h0Z"/><path class="cls-3" d="m155,34.86c-.07-.02-.71-.2-.93.08-.05.06-.12.2,0,.41.1.19.56.37.9.37.11,0,.21-.02.28-.06.15-.08.23-.21.21-.36-.02-.19-.2-.36-.47-.44Zm.08.48c-.13.07-.61-.08-.7-.17.09-.02.3,0,.52.05.12.03.18.09.2.12,0,0,0,0-.01,0Z"/><path class="cls-3" d="m156.26,17.7c.01.26.04.65.57.67h.07c.39,0,.77-.09,1.05-.16.13-.03.27-.06.32-.06.03,0,.1.01.17.02.26.04.57.09.72-.08.05-.06.11-.17.05-.34-.13-.47-1.05-1.25-1.53-1.48-.14-.06-.27-.17-.4-.28-.29-.23-.62-.5-1.05-.31-.1.05-.19.15-.23.32-.1.34-.07.95.15,1.3.08.12.08.27.1.42h0Zm.14-1.7c.21-.09.39.03.67.26.15.12.3.24.48.33.47.22,1.24.94,1.34,1.25-.09.01-.28-.02-.37-.03-.09-.01-.17-.03-.23-.03-.1,0-.22.03-.41.08-.28.07-.67.16-1.03.15-.19,0-.2-.04-.22-.32-.01-.17-.03-.39-.15-.59-.21-.34-.16-.99-.08-1.09h0Z"/><path class="cls-3" d="m140.4,6.66c-.2.02-.5.05-.48.56.01.44.6,1.05.88,1.18.17.08,1.7.53,2.07.35.2-.1.26-.28.3-.4,0-.01,0-.03.01-.04.08.04.23.15.36.25.29.23.65.5,1,.57.36.07.72.62.79.82-.01.04-.05.12-.08.18-.13.27-.36.71,0,.99.33.26,1.17.29,2.01.3h.29c.08,0,.26.05.43.09.34.08.62.15.84.15.15,0,.28-.03.36-.11.06-.06.14-.17.11-.34-.05-.33-.34-.65-.62-.97-.14-.17-.39-.45-.39-.53.06-.27.02-.71-.19-.99-.13-.17-.3-.26-.5-.28-.47-.02-1.12-.3-1.52-.56-.26-.17-1.91-1.04-2.34-.84-.26.12-1.34.23-1.71-.07-.12-.1-.21-.2-.3-.29-.21-.23-.44-.49-.9-.16-.15.11-.29.12-.43.14h0Zm1.05.27c.09.1.19.21.34.33.54.44,1.8.25,2.09.12.21-.06,1.46.48,1.99.82.46.3,1.16.6,1.7.62.09,0,.17.05.23.13.13.18.18.5.13.68-.06.25.17.52.48.86.23.26.5.56.53.78v.02c-.12.06-.64-.07-.87-.12-.21-.06-.38-.1-.5-.1h-.3c-.46,0-1.52-.01-1.78-.22-.1-.08-.04-.25.1-.54.09-.17.16-.31.11-.43-.07-.21-.5-.97-1.08-1.08-.26-.05-.59-.3-.84-.5-.2-.16-.37-.28-.5-.32-.05-.01-.09-.02-.13-.02-.05,0-.09,0-.13.03-.12.06-.16.18-.19.28-.04.1-.06.16-.11.19-.21.08-1.49-.22-1.77-.35-.19-.09-.66-.59-.67-.85,0-.12.01-.16.01-.16.02-.01.09-.02.14-.02.16-.01.37-.03.6-.2.19-.14.21-.12.42.1v-.02Z"/><path class="cls-3" d="m143.95,10.74c-.62-.03-.93.34-1.01.45-.07.1-.14.24-.08.36l.04.1c.14.34.23.52.41.59.04.01.08.02.12.02.1,0,.19-.03.26-.07.08-.04.3-.06.48-.08.41-.05.74-.08.83-.3.03-.06.05-.17-.05-.31-.05-.08-.1-.15-.14-.22-.14-.25-.28-.5-.88-.54h0Zm.19,1.01c-.23.03-.46.06-.6.12-.07.03-.1.03-.1.03-.04-.03-.12-.22-.2-.4l-.03-.06c.04-.09.26-.37.72-.34.4.02.46.12.58.35.03.06.08.14.13.21-.12.03-.35.06-.5.08h0Z"/><path class="cls-3" d="m138.56,3.94c.29.05.5-.08.63-.17.03-.02.07-.04.1-.06.05.12,0,.61-.03.9-.05.51-.08.83,0,1.02.03.07.08.17.22.22.08.03.17.04.28.04.46,0,1.1-.26,1.2-.31.04-.02.12-.08.13-.21.05-.47-.79-2.46-1.14-2.74-.26-.21-.92-.28-1.43-.17-.36.08-.61.24-.74.48-.11.21-.12.41-.04.57.14.29.54.39.82.43h0Zm-.46-.83c.07-.13.24-.23.49-.28.43-.1.97-.02,1.12.1.25.19.99,1.96,1,2.37-.35.15-1.03.32-1.12.22-.04-.12,0-.53.03-.85.06-.64.09-1.01-.06-1.19-.08-.09-.17-.12-.25-.12-.12,0-.23.07-.31.12-.12.07-.23.14-.38.12-.41-.07-.52-.18-.56-.23-.03-.06-.01-.14.04-.24h0Z"/><path class="cls-3" d="m134.36,8.81c.13.09.27.18.39.32.19.21.37.28.55.28.16,0,.32-.05.46-.1.19-.06.38-.12.61-.12.68.01,1.7-.36,1.81-.65.01-.05.02-.12-.03-.2-.17-.3-1.24-.81-2.16-1.01-.17-.04-.32-.08-.46-.11-.67-.18-1.05-.28-1.47.52-.34.65,0,.88.3,1.08h0Zm.03-.91c.17-.33.28-.45.49-.45.13,0,.3.05.56.11.14.03.29.08.47.12.86.19,1.63.59,1.86.78-.22.14-.85.39-1.39.37-.29,0-.53.08-.72.14-.33.11-.45.13-.63-.08-.15-.18-.32-.29-.46-.39-.29-.19-.37-.25-.18-.61h0Z"/><path class="cls-3" d="m132.99,8.41c.22,0,.43-.05.46-.06.4-.1.61-.88.59-1.27-.01-.34-.19-.41-.28-.43-.54-.08-1.06.29-1.38.99-.13.28-.06.46.03.56.13.16.37.2.58.2Zm-.27-.61c.23-.5.56-.79.9-.79h.06c.03.1.01.4-.11.7-.09.22-.17.28-.2.29-.28.07-.6.06-.68-.02-.02-.03-.01-.09.03-.17h0Z"/><path class="cls-3" d="m135.34,7.01c.06,0,.36.05.68.05.37,0,.78-.05.9-.25.03-.06.08-.19-.05-.36-.33-.41-.79-.43-1.25-.45-.13,0-.22-.08-.31-.18-.12-.12-.34-.32-.65-.13-.13.08-.18.26-.13.5.07.37.36.77.83.83h0Zm-.48-1.03s.08-.01.19.1c.12.11.28.27.55.28.44.02.73.04.94.28-.18.06-.67.08-1.16.01-.22-.03-.36-.19-.43-.31-.09-.16-.11-.3-.1-.36h0Z"/><path class="cls-3" d="m137.28,7.06c-.05.31.48.79.65.85.04.01.09.02.15.02.26,0,.72-.1.85-.31.06-.1.08-.24-.05-.38-.32-.32-.99-.42-1.24-.42-.3,0-.35.19-.36.25h0Zm1.29.39c-.13.06-.42.12-.52.1-.08-.04-.3-.25-.38-.39.24,0,.68.1.9.28h0Z"/><path class="cls-3" d="m140.26,6.5c.04-.08.04-.16,0-.22-.12-.2-.87-.48-1.2-.36-.07.03-.25-.04-.38-.08-.21-.08-.43-.15-.61-.08-.1.03-.15.14-.13.25.05.29.85,1.01,1.28,1.01.13,0,.92-.28,1.05-.5h0Zm-1.8-.35s.07.02.1.03c.21.08.43.15.62.08.12-.04.43.05.63.14-.19.1-.51.22-.6.24-.19,0-.53-.28-.74-.5Z"/><path class="cls-3" d="m136.75,5.88c.1.19.27.5.58.5.19,0,.34-.09.41-.23.03-.08.09-.29-.14-.55-.24-.28-.63-.25-.8-.12-.14.1-.14.24-.09.33.01.02.03.04.04.07Zm.58-.04c.08.1.08.15.08.16,0,0-.03.02-.08.02-.08,0-.18-.17-.23-.27.07,0,.16,0,.23.09h0Z"/><path class="cls-3" d="m144.31,20.63c.14.07.38.12.76-.04.21-.08.32-.2.41-.28.12-.11.13-.12.28-.07.19.08.39.08.56.08.32,0,.32.01.32.12s-.18.28-.34.43c-.28.26-.63.59-.53,1.02.08.34.25,1.06.77,1.06.1,0,.2-.04.28-.12.22-.22.23-.71.22-1.19v-.11c0-.14.47-.34.68-.35.09.03.31.3.43.43.16.19.27.32.36.37.03.01.06.05.09.08.08.08.18.19.34.17.17-.03.26-.18.33-.33.04-.07.07-.14.1-.2.19-.37.32-.66.25-.96-.1-.37-.28-.57-.99-.67-.96-.14-1.15-.26-1.18-.3-.09-.28-.72-.95-1.17-.9-.08,0-.23-.01-.38-.03-.43-.06-.95-.12-1.1.28-.06.15-.23.33-.39.5-.23.24-.41.43-.37.65.04.17.14.3.28.37h0Zm.35-.76c.18-.19.38-.39.46-.61.05-.13.47-.08.72-.04.18.03.34.05.46.03.21-.02.74.5.79.64.07.26.48.41,1.48.56.6.08.63.22.68.4.05.17-.07.39-.22.7-.03.06-.07.13-.1.21-.02.04-.04.08-.05.1,0,0-.01-.01-.02-.02-.04-.05-.1-.11-.17-.15-.05-.03-.17-.18-.27-.29-.3-.35-.49-.57-.7-.57-.27,0-1.05.25-1.05.72v.12c0,.22.01.8-.12.93t-.01,0c-.23,0-.37-.59-.41-.79-.05-.21.14-.41.42-.67.23-.22.46-.43.46-.7,0-.49-.43-.49-.67-.49-.15,0-.3,0-.43-.05-.1-.04-.19-.06-.27-.06-.19,0-.3.1-.4.2-.08.08-.16.15-.3.21-.19.08-.36.1-.45.06-.04-.02-.08-.06-.09-.12.02-.07.17-.22.27-.32h0Z"/><path class="cls-5" d="m95.53,50.3c2.66,0,4.82-2.16,4.82-4.82s-2.16-4.82-4.82-4.82-4.82,2.16-4.82,4.82,2.16,4.82,4.82,4.82Z"/><path class="cls-5" d="m85.44,50.3c2.66,0,4.82-2.16,4.82-4.82s-2.16-4.82-4.82-4.82-4.82,2.16-4.82,4.82,2.16,4.82,4.82,4.82Z"/></g><path class="cls-4" d="m11.99,114.99v-10.77h4.84c2.29,0,4.17.94,4.17,3.44s-1.89,3.43-4.17,3.43h-1.98v3.89h-2.86Zm2.86-6.23h1.86c.97,0,1.38-.41,1.38-1.09s-.37-1.11-1.38-1.11h-1.86v2.2Zm7.34,6.23v-10.77h2.86v8.37h4.98v2.4h-7.84Zm8.06,0l4.06-10.77h3.58l4.06,10.77h-3.09l-.78-2.35h-4l-.8,2.35h-3.03Zm4.6-4.68h2.45l-.82-2.42c-.17-.54-.31-.95-.4-1.35-.09.4-.25.82-.42,1.37l-.82,2.4Zm8,4.68v-10.77h4.08l3.37,6.88c-.06-.51-.08-.99-.08-1.55v-5.32s2.77,0,2.77,0v10.77h-3.52l-3.92-7.95c.06.52.06.92.06,1.54l.03,6.41h-2.78Zm12.08,0v-10.77h7.95v2.4h-5.09v1.75h4.84v2.34h-4.84v1.88h5.34v2.4h-8.2Zm12.24,0v-8.37h-3.4v-2.4h9.64v2.4h-3.38v8.37h-2.86Zm5.11,0l4.06-10.77h3.58l4.06,10.77h-3.09l-.78-2.35h-4l-.8,2.35h-3.03Zm4.6-4.68h2.44l-.82-2.42c-.17-.54-.31-.95-.4-1.35-.09.4-.25.82-.42,1.37l-.81,2.4Zm8,4.68v-10.77h5.17c2.11,0,3.71.91,3.71,2.92,0,1.51-1.03,2.35-2.12,2.66,1.34.21,1.92,1.06,1.92,2.41v2.77h-2.88v-2.52c0-1.06-.46-1.43-1.52-1.43h-1.48v3.95h-2.8Zm2.8-6.24h1.75c.88,0,1.43-.31,1.43-1.11s-.55-1.08-1.43-1.08h-1.75v2.18Zm10.34,6.24v-4.18l-4.21-6.58h3.43l1.63,2.97c.25.45.45.89.62,1.28.17-.39.38-.83.63-1.28l1.65-2.97h3.29l-4.17,6.58v4.18h-2.86Zm10.46,0v-10.77h4.85c2.29,0,4.17.94,4.17,3.44s-1.89,3.43-4.17,3.43h-1.99v3.89h-2.86Zm2.86-6.23h1.86c.97,0,1.38-.41,1.38-1.09s-.37-1.11-1.38-1.11h-1.86v2.2Zm12.35,6.52c-3.15,0-5.49-2.03-5.49-5.68s2.34-5.68,5.49-5.68,5.58,2.17,5.58,5.68-2.43,5.68-5.58,5.68Zm-2.52-5.68c0,2.14,1,3.28,2.52,3.28s2.6-1.12,2.6-3.28-1.08-3.28-2.6-3.28-2.52,1.15-2.52,3.28Zm9.57,5.38v-10.77h5.17c2.11,0,3.71.91,3.71,2.92,0,1.51-1.03,2.35-2.12,2.66,1.34.21,1.92,1.06,1.92,2.41v2.77h-2.88v-2.52c0-1.06-.46-1.43-1.52-1.43h-1.48v3.95h-2.8Zm2.8-6.24h1.75c.88,0,1.43-.31,1.43-1.11s-.55-1.08-1.43-1.08h-1.75v2.18Zm10.04,6.24v-8.37h-3.4v-2.4h9.64v2.4h-3.38v8.37h-2.86Zm5.11,0l4.06-10.77h3.58l4.06,10.77h-3.09l-.78-2.35h-4l-.8,2.35h-3.03Zm4.6-4.68h2.44l-.82-2.42c-.17-.54-.31-.95-.4-1.35-.09.4-.25.82-.41,1.37l-.82,2.4Zm8,4.68v-10.77h2.86v8.37h4.98v2.4h-7.84Z"/></svg>