<svg width="80" height="7" viewBox="0 0 80 7" fill="none" xmlns="http://www.w3.org/2000/svg">
<path d="M0.82075 6.42578V1.03897H3.24482C4.39144 1.03897 5.33028 1.50839 5.33028 2.76275C5.33028 4.0248 4.38374 4.47883 3.24482 4.47883H2.2521V6.42578H0.82075ZM2.2521 3.30913H3.18325C3.66806 3.30913 3.87584 3.10135 3.87584 2.76275C3.87584 2.43185 3.69115 2.20868 3.18325 2.20868H2.2521V3.30913ZM5.92349 6.42578V1.03897H7.35484V5.22529H9.84817V6.42578H5.92349ZM9.95434 6.42578L11.9859 1.03897H13.779L15.8106 6.42578H14.2638L13.8713 5.24838H11.8705L11.4703 6.42578H9.95434ZM12.2553 4.08637H13.4789L13.071 2.87818C12.9863 2.60884 12.9171 2.40106 12.8709 2.20098C12.8247 2.40106 12.7478 2.60884 12.6631 2.88588L12.2553 4.08637ZM16.2567 6.42578V1.03897H18.296L19.9813 4.47883C19.9505 4.22488 19.9428 3.98633 19.9428 3.70159L19.9351 1.03897H21.328V6.42578H19.5658L17.6034 2.44724C17.6342 2.70888 17.6342 2.90896 17.6342 3.21678L17.6496 6.42578H16.2567ZM22.2989 6.42578V1.03897H26.2774V2.23946H23.7302V3.11674H26.1543V4.28645H23.7302V5.22529H26.4005V6.42578H22.2989ZM28.4239 6.42578V2.23946H26.7232V1.03897H31.5482V2.23946H29.8552V6.42578H28.4239ZM30.9815 6.42578L33.0131 1.03897H34.8062L36.8378 6.42578H35.291L34.8985 5.24838H32.8977L32.4975 6.42578H30.9815ZM33.2825 4.08637H34.506L34.0982 2.87818C34.0135 2.60884 33.9443 2.40106 33.8981 2.20098C33.8519 2.40106 33.775 2.60884 33.6903 2.88588L33.2825 4.08637ZM37.2839 6.42578V1.03897H39.8696C40.9239 1.03897 41.7242 1.493 41.7242 2.5011C41.7242 3.25526 41.2086 3.67851 40.6622 3.83242C41.3317 3.94015 41.6242 4.3634 41.6242 5.0406V6.42578H40.1851V5.16373C40.1851 4.63274 39.9542 4.44805 39.4233 4.44805H38.6845V6.42578H37.2839ZM38.6845 3.30143H39.5618C40.0004 3.30143 40.2775 3.14752 40.2775 2.74736C40.2775 2.35489 40.0004 2.20868 39.5618 2.20868H38.6845V3.30143ZM43.8587 6.42578V4.33262L41.7501 1.03897H43.4662L44.2819 2.52419C44.405 2.74736 44.5051 2.97053 44.5897 3.16291C44.6744 2.97053 44.7821 2.74736 44.9052 2.52419L45.7287 1.03897H47.3755L45.29 4.33262V6.42578H43.8587ZM49.0901 6.42578V1.03897H51.5142C52.6608 1.03897 53.5996 1.50839 53.5996 2.76275C53.5996 4.0248 52.6531 4.47883 51.5142 4.47883H50.5215V6.42578H49.0901ZM50.5215 3.30913H51.4526C51.9374 3.30913 52.1452 3.10135 52.1452 2.76275C52.1452 2.43185 51.9605 2.20868 51.4526 2.20868H50.5215V3.30913ZM56.7016 6.57199C55.124 6.57199 53.9543 5.5562 53.9543 3.73238C53.9543 1.93934 55.124 0.892757 56.7016 0.892757C58.2791 0.892757 59.495 1.97782 59.495 3.73238C59.495 5.52541 58.2791 6.57199 56.7016 6.57199ZM55.4395 3.73238C55.4395 4.80204 55.9397 5.37151 56.7016 5.37151C57.4634 5.37151 58.0021 4.80974 58.0021 3.73238C58.0021 2.6704 57.4634 2.09325 56.7016 2.09325C55.9397 2.09325 55.4395 2.6704 55.4395 3.73238ZM60.2275 6.42578V1.03897H62.8131C63.8674 1.03897 64.6677 1.493 64.6677 2.5011C64.6677 3.25526 64.1521 3.67851 63.6058 3.83242C64.2753 3.94015 64.5677 4.3634 64.5677 5.0406V6.42578H63.1286V5.16373C63.1286 4.63274 62.8978 4.44805 62.3668 4.44805H61.628V6.42578H60.2275ZM61.628 3.30143H62.5053C62.944 3.30143 63.221 3.14752 63.221 2.74736C63.221 2.35489 62.944 2.20868 62.5053 2.20868H61.628V3.30143ZM66.6531 6.42578V2.23946H64.9524V1.03897H69.7775V2.23946H68.0845V6.42578H66.6531ZM69.2108 6.42578L71.2423 1.03897H73.0354L75.067 6.42578H73.5202L73.1277 5.24838H71.1269L70.7268 6.42578H69.2108ZM71.5117 4.08637H72.7353L72.3274 2.87818C72.2428 2.60884 72.1735 2.40106 72.1273 2.20098C72.0812 2.40106 72.0042 2.60884 71.9195 2.88588L71.5117 4.08637ZM75.5131 6.42578V1.03897H76.9445V5.22529H79.4378V6.42578H75.5131Z" fill="#1C5F7A"/>
</svg>
